M48
; DRILL file {KiCad (5.1.12)-1} date 01/22/22 18:57:47
; FORMAT={-:-/ absolute / inch / decimal}
; #@! TF.CreationDate,2022-01-22T18:57:47-08:00
; #@! TF.GenerationSoftware,Kicad,Pcbnew,(5.1.12)-1
; #@! TF.FileFunction,Plated,1,2,PTH
FMAT,2
INCH
T1C0.0394
T2C0.0402
%
G90
G05
T1
X5.825Y-2.82
X5.825Y-3.07
X5.825Y-3.32
X5.825Y-3.57
X5.825Y-3.82
X5.825Y-4.07
X5.825Y-4.32
X5.825Y-4.57
X5.9234Y-2.82
X5.9234Y-3.07
X5.9234Y-3.32
X5.9234Y-3.57
X5.9234Y-3.82
X5.9234Y-4.07
X5.9234Y-4.32
X5.9234Y-4.57
T2
X6.25Y-2.745
X6.25Y-2.845
X6.25Y-2.945
X6.25Y-3.045
X6.25Y-3.145
X6.25Y-3.245
X6.25Y-3.345
X6.25Y-3.445
X6.25Y-3.545
X6.25Y-3.645
X6.25Y-3.745
X6.25Y-3.845
X6.25Y-3.945
X6.25Y-4.045
X6.25Y-4.145
X6.25Y-4.245
X6.25Y-4.345
X6.25Y-4.445
X6.25Y-4.545
X6.25Y-4.645
X6.5Y-4.6359
X6.6Y-4.6359
X6.7Y-4.6359
X6.95Y-2.745
X6.95Y-2.845
X6.95Y-2.945
X6.95Y-3.045
X6.95Y-3.145
X6.95Y-3.245
X6.95Y-3.345
X6.95Y-3.445
X6.95Y-3.545
X6.95Y-3.645
X6.95Y-3.745
X6.95Y-3.845
X6.95Y-3.945
X6.95Y-4.045
X6.95Y-4.145
X6.95Y-4.245
X6.95Y-4.345
X6.95Y-4.445
X6.95Y-4.545
X6.95Y-4.645
T0
M30
