%TF.GenerationSoftware,KiCad,Pcbnew,(5.1.12)-1*%
%TF.CreationDate,2022-01-22T18:57:43-08:00*%
%TF.ProjectId,Button_Board,42757474-6f6e-45f4-926f-6172642e6b69,rev?*%
%TF.SameCoordinates,Original*%
%TF.FileFunction,Soldermask,Top*%
%TF.FilePolarity,Negative*%
%FSLAX46Y46*%
G04 Gerber Fmt 4.6, Leading zero omitted, Abs format (unit mm)*
G04 Created by KiCad (PCBNEW (5.1.12)-1) date 2022-01-22 18:57:43*
%MOMM*%
%LPD*%
G01*
G04 APERTURE LIST*
%ADD10O,1.700000X1.700000*%
%ADD11R,1.700000X3.500000*%
%ADD12R,1.700000X1.700000*%
%ADD13O,1.500000X1.500000*%
%ADD14O,1.800000X1.800000*%
%ADD15R,3.500000X1.700000*%
%ADD16O,1.700000X2.000000*%
G04 APERTURE END LIST*
D10*
%TO.C,U1*%
X170180000Y-117753000D03*
D11*
X170180000Y-118653000D03*
D12*
X167640000Y-117753000D03*
D11*
X167640000Y-118653000D03*
D10*
X165100000Y-117753000D03*
D11*
X165100000Y-118653000D03*
D13*
X170065000Y-72883000D03*
X165215000Y-72883000D03*
D14*
X170365000Y-69853000D03*
X164915000Y-69853000D03*
D15*
X177430000Y-117983000D03*
X177430000Y-115443000D03*
X177430000Y-112903000D03*
X177430000Y-110363000D03*
X177430000Y-107823000D03*
X177430000Y-105283000D03*
X177430000Y-102743000D03*
X177430000Y-100203000D03*
X177430000Y-97663000D03*
X177430000Y-95123000D03*
X177430000Y-92583000D03*
X177430000Y-90043000D03*
X177430000Y-87503000D03*
X177430000Y-84963000D03*
X177430000Y-82423000D03*
X177430000Y-79883000D03*
X177430000Y-77343000D03*
X177430000Y-74803000D03*
X177430000Y-72263000D03*
X177430000Y-69723000D03*
X157850000Y-117983000D03*
X157850000Y-115443000D03*
X157850000Y-112903000D03*
X157850000Y-110363000D03*
X157850000Y-107823000D03*
X157850000Y-105283000D03*
X157850000Y-102743000D03*
X157850000Y-100203000D03*
X157850000Y-97663000D03*
X157850000Y-95123000D03*
X157850000Y-92583000D03*
X157850000Y-90043000D03*
X157850000Y-87503000D03*
X157850000Y-84963000D03*
X157850000Y-82423000D03*
X157850000Y-79883000D03*
X157850000Y-77343000D03*
X157850000Y-74803000D03*
X157850000Y-72263000D03*
X157850000Y-69723000D03*
D10*
X176530000Y-69723000D03*
X176530000Y-72263000D03*
D12*
X176530000Y-74803000D03*
D10*
X176530000Y-77343000D03*
X176530000Y-79883000D03*
X176530000Y-82423000D03*
X176530000Y-84963000D03*
D12*
X176530000Y-87503000D03*
D10*
X176530000Y-90043000D03*
X176530000Y-92583000D03*
X176530000Y-95123000D03*
X176530000Y-97663000D03*
D12*
X176530000Y-100203000D03*
D10*
X176530000Y-102743000D03*
X176530000Y-105283000D03*
X176530000Y-107823000D03*
X176530000Y-110363000D03*
D12*
X176530000Y-112903000D03*
D10*
X176530000Y-115443000D03*
X176530000Y-117983000D03*
X158750000Y-117983000D03*
X158750000Y-115443000D03*
D12*
X158750000Y-112903000D03*
D10*
X158750000Y-110363000D03*
X158750000Y-107823000D03*
X158750000Y-105283000D03*
X158750000Y-102743000D03*
D12*
X158750000Y-100203000D03*
D10*
X158750000Y-97663000D03*
X158750000Y-95123000D03*
X158750000Y-92583000D03*
X158750000Y-90043000D03*
D12*
X158750000Y-87503000D03*
D10*
X158750000Y-84963000D03*
X158750000Y-82423000D03*
X158750000Y-79883000D03*
X158750000Y-77343000D03*
D12*
X158750000Y-74803000D03*
D10*
X158750000Y-72263000D03*
X158750000Y-69723000D03*
%TD*%
D16*
%TO.C,J7*%
X150455000Y-116078000D03*
G36*
G01*
X147105000Y-116828000D02*
X147105000Y-115328000D01*
G75*
G02*
X147355000Y-115078000I250000J0D01*
G01*
X148555000Y-115078000D01*
G75*
G02*
X148805000Y-115328000I0J-250000D01*
G01*
X148805000Y-116828000D01*
G75*
G02*
X148555000Y-117078000I-250000J0D01*
G01*
X147355000Y-117078000D01*
G75*
G02*
X147105000Y-116828000I0J250000D01*
G01*
G37*
%TD*%
%TO.C,J6*%
X150455000Y-109728000D03*
G36*
G01*
X147105000Y-110478000D02*
X147105000Y-108978000D01*
G75*
G02*
X147355000Y-108728000I250000J0D01*
G01*
X148555000Y-108728000D01*
G75*
G02*
X148805000Y-108978000I0J-250000D01*
G01*
X148805000Y-110478000D01*
G75*
G02*
X148555000Y-110728000I-250000J0D01*
G01*
X147355000Y-110728000D01*
G75*
G02*
X147105000Y-110478000I0J250000D01*
G01*
G37*
%TD*%
%TO.C,J5*%
X150455000Y-103378000D03*
G36*
G01*
X147105000Y-104128000D02*
X147105000Y-102628000D01*
G75*
G02*
X147355000Y-102378000I250000J0D01*
G01*
X148555000Y-102378000D01*
G75*
G02*
X148805000Y-102628000I0J-250000D01*
G01*
X148805000Y-104128000D01*
G75*
G02*
X148555000Y-104378000I-250000J0D01*
G01*
X147355000Y-104378000D01*
G75*
G02*
X147105000Y-104128000I0J250000D01*
G01*
G37*
%TD*%
%TO.C,J4*%
X150455000Y-97028000D03*
G36*
G01*
X147105000Y-97778000D02*
X147105000Y-96278000D01*
G75*
G02*
X147355000Y-96028000I250000J0D01*
G01*
X148555000Y-96028000D01*
G75*
G02*
X148805000Y-96278000I0J-250000D01*
G01*
X148805000Y-97778000D01*
G75*
G02*
X148555000Y-98028000I-250000J0D01*
G01*
X147355000Y-98028000D01*
G75*
G02*
X147105000Y-97778000I0J250000D01*
G01*
G37*
%TD*%
%TO.C,J3*%
X150455000Y-90678000D03*
G36*
G01*
X147105000Y-91428000D02*
X147105000Y-89928000D01*
G75*
G02*
X147355000Y-89678000I250000J0D01*
G01*
X148555000Y-89678000D01*
G75*
G02*
X148805000Y-89928000I0J-250000D01*
G01*
X148805000Y-91428000D01*
G75*
G02*
X148555000Y-91678000I-250000J0D01*
G01*
X147355000Y-91678000D01*
G75*
G02*
X147105000Y-91428000I0J250000D01*
G01*
G37*
%TD*%
%TO.C,J2*%
X150455000Y-84328000D03*
G36*
G01*
X147105000Y-85078000D02*
X147105000Y-83578000D01*
G75*
G02*
X147355000Y-83328000I250000J0D01*
G01*
X148555000Y-83328000D01*
G75*
G02*
X148805000Y-83578000I0J-250000D01*
G01*
X148805000Y-85078000D01*
G75*
G02*
X148555000Y-85328000I-250000J0D01*
G01*
X147355000Y-85328000D01*
G75*
G02*
X147105000Y-85078000I0J250000D01*
G01*
G37*
%TD*%
%TO.C,J1*%
X150455000Y-77978000D03*
G36*
G01*
X147105000Y-78728000D02*
X147105000Y-77228000D01*
G75*
G02*
X147355000Y-76978000I250000J0D01*
G01*
X148555000Y-76978000D01*
G75*
G02*
X148805000Y-77228000I0J-250000D01*
G01*
X148805000Y-78728000D01*
G75*
G02*
X148555000Y-78978000I-250000J0D01*
G01*
X147355000Y-78978000D01*
G75*
G02*
X147105000Y-78728000I0J250000D01*
G01*
G37*
%TD*%
%TO.C,J0*%
X150455000Y-71628000D03*
G36*
G01*
X147105000Y-72378000D02*
X147105000Y-70878000D01*
G75*
G02*
X147355000Y-70628000I250000J0D01*
G01*
X148555000Y-70628000D01*
G75*
G02*
X148805000Y-70878000I0J-250000D01*
G01*
X148805000Y-72378000D01*
G75*
G02*
X148555000Y-72628000I-250000J0D01*
G01*
X147355000Y-72628000D01*
G75*
G02*
X147105000Y-72378000I0J250000D01*
G01*
G37*
%TD*%
M02*
