%TF.GenerationSoftware,KiCad,Pcbnew,(5.1.12)-1*%
%TF.CreationDate,2022-01-22T18:57:43-08:00*%
%TF.ProjectId,Button_Board,42757474-6f6e-45f4-926f-6172642e6b69,rev?*%
%TF.SameCoordinates,Original*%
%TF.FileFunction,Copper,L2,Bot*%
%TF.FilePolarity,Positive*%
%FSLAX46Y46*%
G04 Gerber Fmt 4.6, Leading zero omitted, Abs format (unit mm)*
G04 Created by KiCad (PCBNEW (5.1.12)-1) date 2022-01-22 18:57:43*
%MOMM*%
%LPD*%
G01*
G04 APERTURE LIST*
%TA.AperFunction,ComponentPad*%
%ADD10O,1.700000X1.700000*%
%TD*%
%TA.AperFunction,ComponentPad*%
%ADD11R,1.700000X1.700000*%
%TD*%
%TA.AperFunction,ComponentPad*%
%ADD12O,1.700000X2.000000*%
%TD*%
%TA.AperFunction,Conductor*%
%ADD13C,0.250000*%
%TD*%
%TA.AperFunction,Conductor*%
%ADD14C,0.254000*%
%TD*%
%TA.AperFunction,Conductor*%
%ADD15C,0.100000*%
%TD*%
G04 APERTURE END LIST*
D10*
%TO.P,U1,43*%
%TO.N,Net-(U1-Pad43)*%
X170180000Y-117753000D03*
D11*
%TO.P,U1,42*%
%TO.N,Net-(J0-Pad1)*%
X167640000Y-117753000D03*
D10*
%TO.P,U1,41*%
%TO.N,Net-(U1-Pad41)*%
X165100000Y-117753000D03*
%TO.P,U1,40*%
%TO.N,Net-(U1-Pad40)*%
X176530000Y-69723000D03*
%TO.P,U1,39*%
%TO.N,Net-(U1-Pad39)*%
X176530000Y-72263000D03*
D11*
%TO.P,U1,38*%
%TO.N,Net-(J0-Pad1)*%
X176530000Y-74803000D03*
D10*
%TO.P,U1,37*%
%TO.N,Net-(U1-Pad37)*%
X176530000Y-77343000D03*
%TO.P,U1,36*%
%TO.N,Net-(U1-Pad36)*%
X176530000Y-79883000D03*
%TO.P,U1,35*%
%TO.N,Net-(U1-Pad35)*%
X176530000Y-82423000D03*
%TO.P,U1,34*%
%TO.N,Net-(U1-Pad34)*%
X176530000Y-84963000D03*
D11*
%TO.P,U1,33*%
%TO.N,Net-(U1-Pad33)*%
X176530000Y-87503000D03*
D10*
%TO.P,U1,32*%
%TO.N,Net-(U1-Pad32)*%
X176530000Y-90043000D03*
%TO.P,U1,31*%
%TO.N,Net-(U1-Pad31)*%
X176530000Y-92583000D03*
%TO.P,U1,30*%
%TO.N,Net-(U1-Pad30)*%
X176530000Y-95123000D03*
%TO.P,U1,29*%
%TO.N,Net-(U1-Pad29)*%
X176530000Y-97663000D03*
D11*
%TO.P,U1,28*%
%TO.N,Net-(J0-Pad1)*%
X176530000Y-100203000D03*
D10*
%TO.P,U1,27*%
%TO.N,Net-(U1-Pad27)*%
X176530000Y-102743000D03*
%TO.P,U1,26*%
%TO.N,Net-(U1-Pad26)*%
X176530000Y-105283000D03*
%TO.P,U1,25*%
%TO.N,Net-(U1-Pad25)*%
X176530000Y-107823000D03*
%TO.P,U1,24*%
%TO.N,Net-(U1-Pad24)*%
X176530000Y-110363000D03*
D11*
%TO.P,U1,23*%
%TO.N,Net-(J0-Pad1)*%
X176530000Y-112903000D03*
D10*
%TO.P,U1,22*%
%TO.N,Net-(U1-Pad22)*%
X176530000Y-115443000D03*
%TO.P,U1,21*%
%TO.N,Net-(U1-Pad21)*%
X176530000Y-117983000D03*
%TO.P,U1,20*%
%TO.N,Net-(J7-Pad2)*%
X158750000Y-117983000D03*
%TO.P,U1,19*%
%TO.N,Net-(J6-Pad2)*%
X158750000Y-115443000D03*
D11*
%TO.P,U1,18*%
%TO.N,Net-(J0-Pad1)*%
X158750000Y-112903000D03*
D10*
%TO.P,U1,17*%
%TO.N,Net-(J5-Pad2)*%
X158750000Y-110363000D03*
%TO.P,U1,16*%
%TO.N,Net-(J4-Pad2)*%
X158750000Y-107823000D03*
%TO.P,U1,15*%
%TO.N,Net-(J3-Pad2)*%
X158750000Y-105283000D03*
%TO.P,U1,14*%
%TO.N,Net-(J2-Pad2)*%
X158750000Y-102743000D03*
D11*
%TO.P,U1,13*%
%TO.N,Net-(J0-Pad1)*%
X158750000Y-100203000D03*
D10*
%TO.P,U1,12*%
%TO.N,Net-(J1-Pad2)*%
X158750000Y-97663000D03*
%TO.P,U1,11*%
%TO.N,Net-(J0-Pad2)*%
X158750000Y-95123000D03*
%TO.P,U1,10*%
%TO.N,Net-(U1-Pad10)*%
X158750000Y-92583000D03*
%TO.P,U1,9*%
%TO.N,Net-(U1-Pad9)*%
X158750000Y-90043000D03*
D11*
%TO.P,U1,8*%
%TO.N,Net-(J0-Pad1)*%
X158750000Y-87503000D03*
D10*
%TO.P,U1,7*%
%TO.N,Net-(U1-Pad7)*%
X158750000Y-84963000D03*
%TO.P,U1,6*%
%TO.N,Net-(U1-Pad6)*%
X158750000Y-82423000D03*
%TO.P,U1,5*%
%TO.N,Net-(U1-Pad5)*%
X158750000Y-79883000D03*
%TO.P,U1,4*%
%TO.N,Net-(U1-Pad4)*%
X158750000Y-77343000D03*
D11*
%TO.P,U1,3*%
%TO.N,Net-(J0-Pad1)*%
X158750000Y-74803000D03*
D10*
%TO.P,U1,2*%
%TO.N,Net-(U1-Pad2)*%
X158750000Y-72263000D03*
%TO.P,U1,1*%
%TO.N,Net-(U1-Pad1)*%
X158750000Y-69723000D03*
%TD*%
D12*
%TO.P,J7,2*%
%TO.N,Net-(J7-Pad2)*%
X150455000Y-116078000D03*
%TO.P,J7,1*%
%TO.N,Net-(J0-Pad1)*%
%TA.AperFunction,ComponentPad*%
G36*
G01*
X147105000Y-116828000D02*
X147105000Y-115328000D01*
G75*
G02*
X147355000Y-115078000I250000J0D01*
G01*
X148555000Y-115078000D01*
G75*
G02*
X148805000Y-115328000I0J-250000D01*
G01*
X148805000Y-116828000D01*
G75*
G02*
X148555000Y-117078000I-250000J0D01*
G01*
X147355000Y-117078000D01*
G75*
G02*
X147105000Y-116828000I0J250000D01*
G01*
G37*
%TD.AperFunction*%
%TD*%
%TO.P,J6,2*%
%TO.N,Net-(J6-Pad2)*%
X150455000Y-109728000D03*
%TO.P,J6,1*%
%TO.N,Net-(J0-Pad1)*%
%TA.AperFunction,ComponentPad*%
G36*
G01*
X147105000Y-110478000D02*
X147105000Y-108978000D01*
G75*
G02*
X147355000Y-108728000I250000J0D01*
G01*
X148555000Y-108728000D01*
G75*
G02*
X148805000Y-108978000I0J-250000D01*
G01*
X148805000Y-110478000D01*
G75*
G02*
X148555000Y-110728000I-250000J0D01*
G01*
X147355000Y-110728000D01*
G75*
G02*
X147105000Y-110478000I0J250000D01*
G01*
G37*
%TD.AperFunction*%
%TD*%
%TO.P,J5,2*%
%TO.N,Net-(J5-Pad2)*%
X150455000Y-103378000D03*
%TO.P,J5,1*%
%TO.N,Net-(J0-Pad1)*%
%TA.AperFunction,ComponentPad*%
G36*
G01*
X147105000Y-104128000D02*
X147105000Y-102628000D01*
G75*
G02*
X147355000Y-102378000I250000J0D01*
G01*
X148555000Y-102378000D01*
G75*
G02*
X148805000Y-102628000I0J-250000D01*
G01*
X148805000Y-104128000D01*
G75*
G02*
X148555000Y-104378000I-250000J0D01*
G01*
X147355000Y-104378000D01*
G75*
G02*
X147105000Y-104128000I0J250000D01*
G01*
G37*
%TD.AperFunction*%
%TD*%
%TO.P,J4,2*%
%TO.N,Net-(J4-Pad2)*%
X150455000Y-97028000D03*
%TO.P,J4,1*%
%TO.N,Net-(J0-Pad1)*%
%TA.AperFunction,ComponentPad*%
G36*
G01*
X147105000Y-97778000D02*
X147105000Y-96278000D01*
G75*
G02*
X147355000Y-96028000I250000J0D01*
G01*
X148555000Y-96028000D01*
G75*
G02*
X148805000Y-96278000I0J-250000D01*
G01*
X148805000Y-97778000D01*
G75*
G02*
X148555000Y-98028000I-250000J0D01*
G01*
X147355000Y-98028000D01*
G75*
G02*
X147105000Y-97778000I0J250000D01*
G01*
G37*
%TD.AperFunction*%
%TD*%
%TO.P,J3,2*%
%TO.N,Net-(J3-Pad2)*%
X150455000Y-90678000D03*
%TO.P,J3,1*%
%TO.N,Net-(J0-Pad1)*%
%TA.AperFunction,ComponentPad*%
G36*
G01*
X147105000Y-91428000D02*
X147105000Y-89928000D01*
G75*
G02*
X147355000Y-89678000I250000J0D01*
G01*
X148555000Y-89678000D01*
G75*
G02*
X148805000Y-89928000I0J-250000D01*
G01*
X148805000Y-91428000D01*
G75*
G02*
X148555000Y-91678000I-250000J0D01*
G01*
X147355000Y-91678000D01*
G75*
G02*
X147105000Y-91428000I0J250000D01*
G01*
G37*
%TD.AperFunction*%
%TD*%
%TO.P,J2,2*%
%TO.N,Net-(J2-Pad2)*%
X150455000Y-84328000D03*
%TO.P,J2,1*%
%TO.N,Net-(J0-Pad1)*%
%TA.AperFunction,ComponentPad*%
G36*
G01*
X147105000Y-85078000D02*
X147105000Y-83578000D01*
G75*
G02*
X147355000Y-83328000I250000J0D01*
G01*
X148555000Y-83328000D01*
G75*
G02*
X148805000Y-83578000I0J-250000D01*
G01*
X148805000Y-85078000D01*
G75*
G02*
X148555000Y-85328000I-250000J0D01*
G01*
X147355000Y-85328000D01*
G75*
G02*
X147105000Y-85078000I0J250000D01*
G01*
G37*
%TD.AperFunction*%
%TD*%
%TO.P,J1,2*%
%TO.N,Net-(J1-Pad2)*%
X150455000Y-77978000D03*
%TO.P,J1,1*%
%TO.N,Net-(J0-Pad1)*%
%TA.AperFunction,ComponentPad*%
G36*
G01*
X147105000Y-78728000D02*
X147105000Y-77228000D01*
G75*
G02*
X147355000Y-76978000I250000J0D01*
G01*
X148555000Y-76978000D01*
G75*
G02*
X148805000Y-77228000I0J-250000D01*
G01*
X148805000Y-78728000D01*
G75*
G02*
X148555000Y-78978000I-250000J0D01*
G01*
X147355000Y-78978000D01*
G75*
G02*
X147105000Y-78728000I0J250000D01*
G01*
G37*
%TD.AperFunction*%
%TD*%
%TO.P,J0,2*%
%TO.N,Net-(J0-Pad2)*%
X150455000Y-71628000D03*
%TO.P,J0,1*%
%TO.N,Net-(J0-Pad1)*%
%TA.AperFunction,ComponentPad*%
G36*
G01*
X147105000Y-72378000D02*
X147105000Y-70878000D01*
G75*
G02*
X147355000Y-70628000I250000J0D01*
G01*
X148555000Y-70628000D01*
G75*
G02*
X148805000Y-70878000I0J-250000D01*
G01*
X148805000Y-72378000D01*
G75*
G02*
X148555000Y-72628000I-250000J0D01*
G01*
X147355000Y-72628000D01*
G75*
G02*
X147105000Y-72378000I0J250000D01*
G01*
G37*
%TD.AperFunction*%
%TD*%
D13*
%TO.N,Net-(J0-Pad1)*%
X147955000Y-91567000D02*
X147955000Y-90678000D01*
X147955000Y-90678000D02*
X147955000Y-84328000D01*
X147955000Y-84328000D02*
X147955000Y-77978000D01*
X147955000Y-77978000D02*
X147955000Y-71628000D01*
X151130000Y-112903000D02*
X147955000Y-109728000D01*
X158750000Y-112903000D02*
X151130000Y-112903000D01*
X147955000Y-116078000D02*
X147955000Y-109728000D01*
X147955000Y-109728000D02*
X147955000Y-103378000D01*
X147955000Y-103378000D02*
X147955000Y-97028000D01*
X147955000Y-97028000D02*
X147955000Y-90678000D01*
%TD*%
D14*
%TO.N,Net-(J0-Pad1)*%
X157434010Y-69019589D02*
X157322068Y-69289842D01*
X157265000Y-69576740D01*
X157265000Y-69869260D01*
X157322068Y-70156158D01*
X157434010Y-70426411D01*
X157596525Y-70669632D01*
X157803368Y-70876475D01*
X157977760Y-70993000D01*
X157803368Y-71109525D01*
X157596525Y-71316368D01*
X157434010Y-71559589D01*
X157322068Y-71829842D01*
X157265000Y-72116740D01*
X157265000Y-72409260D01*
X157322068Y-72696158D01*
X157434010Y-72966411D01*
X157596525Y-73209632D01*
X157728380Y-73341487D01*
X157655820Y-73363498D01*
X157545506Y-73422463D01*
X157448815Y-73501815D01*
X157369463Y-73598506D01*
X157310498Y-73708820D01*
X157274188Y-73828518D01*
X157261928Y-73953000D01*
X157265000Y-74517250D01*
X157423750Y-74676000D01*
X158623000Y-74676000D01*
X158623000Y-74656000D01*
X158877000Y-74656000D01*
X158877000Y-74676000D01*
X160076250Y-74676000D01*
X160235000Y-74517250D01*
X160238072Y-73953000D01*
X160225812Y-73828518D01*
X160189502Y-73708820D01*
X160130537Y-73598506D01*
X160051185Y-73501815D01*
X159954494Y-73422463D01*
X159844180Y-73363498D01*
X159771620Y-73341487D01*
X159903475Y-73209632D01*
X160065990Y-72966411D01*
X160157042Y-72746589D01*
X163830000Y-72746589D01*
X163830000Y-73019411D01*
X163883225Y-73286989D01*
X163987629Y-73539043D01*
X164139201Y-73765886D01*
X164332114Y-73958799D01*
X164558957Y-74110371D01*
X164811011Y-74214775D01*
X165078589Y-74268000D01*
X165351411Y-74268000D01*
X165618989Y-74214775D01*
X165871043Y-74110371D01*
X166097886Y-73958799D01*
X166290799Y-73765886D01*
X166442371Y-73539043D01*
X166546775Y-73286989D01*
X166600000Y-73019411D01*
X166600000Y-72746589D01*
X168680000Y-72746589D01*
X168680000Y-73019411D01*
X168733225Y-73286989D01*
X168837629Y-73539043D01*
X168989201Y-73765886D01*
X169182114Y-73958799D01*
X169408957Y-74110371D01*
X169661011Y-74214775D01*
X169928589Y-74268000D01*
X170201411Y-74268000D01*
X170468989Y-74214775D01*
X170721043Y-74110371D01*
X170947886Y-73958799D01*
X171140799Y-73765886D01*
X171292371Y-73539043D01*
X171396775Y-73286989D01*
X171450000Y-73019411D01*
X171450000Y-72746589D01*
X171396775Y-72479011D01*
X171292371Y-72226957D01*
X171140799Y-72000114D01*
X170947886Y-71807201D01*
X170721043Y-71655629D01*
X170468989Y-71551225D01*
X170201411Y-71498000D01*
X169928589Y-71498000D01*
X169661011Y-71551225D01*
X169408957Y-71655629D01*
X169182114Y-71807201D01*
X168989201Y-72000114D01*
X168837629Y-72226957D01*
X168733225Y-72479011D01*
X168680000Y-72746589D01*
X166600000Y-72746589D01*
X166546775Y-72479011D01*
X166442371Y-72226957D01*
X166290799Y-72000114D01*
X166097886Y-71807201D01*
X165871043Y-71655629D01*
X165618989Y-71551225D01*
X165351411Y-71498000D01*
X165078589Y-71498000D01*
X164811011Y-71551225D01*
X164558957Y-71655629D01*
X164332114Y-71807201D01*
X164139201Y-72000114D01*
X163987629Y-72226957D01*
X163883225Y-72479011D01*
X163830000Y-72746589D01*
X160157042Y-72746589D01*
X160177932Y-72696158D01*
X160235000Y-72409260D01*
X160235000Y-72116740D01*
X160177932Y-71829842D01*
X160065990Y-71559589D01*
X159903475Y-71316368D01*
X159696632Y-71109525D01*
X159522240Y-70993000D01*
X159696632Y-70876475D01*
X159903475Y-70669632D01*
X160065990Y-70426411D01*
X160177932Y-70156158D01*
X160235000Y-69869260D01*
X160235000Y-69576740D01*
X160177932Y-69289842D01*
X160065990Y-69019589D01*
X160043547Y-68986000D01*
X163648183Y-68986000D01*
X163554701Y-69125905D01*
X163438989Y-69405257D01*
X163380000Y-69701816D01*
X163380000Y-70004184D01*
X163438989Y-70300743D01*
X163554701Y-70580095D01*
X163722688Y-70831505D01*
X163936495Y-71045312D01*
X164187905Y-71213299D01*
X164467257Y-71329011D01*
X164763816Y-71388000D01*
X165066184Y-71388000D01*
X165362743Y-71329011D01*
X165642095Y-71213299D01*
X165893505Y-71045312D01*
X166107312Y-70831505D01*
X166275299Y-70580095D01*
X166391011Y-70300743D01*
X166450000Y-70004184D01*
X166450000Y-69701816D01*
X166391011Y-69405257D01*
X166275299Y-69125905D01*
X166181817Y-68986000D01*
X169098183Y-68986000D01*
X169004701Y-69125905D01*
X168888989Y-69405257D01*
X168830000Y-69701816D01*
X168830000Y-70004184D01*
X168888989Y-70300743D01*
X169004701Y-70580095D01*
X169172688Y-70831505D01*
X169386495Y-71045312D01*
X169637905Y-71213299D01*
X169917257Y-71329011D01*
X170213816Y-71388000D01*
X170516184Y-71388000D01*
X170812743Y-71329011D01*
X171092095Y-71213299D01*
X171343505Y-71045312D01*
X171557312Y-70831505D01*
X171725299Y-70580095D01*
X171841011Y-70300743D01*
X171900000Y-70004184D01*
X171900000Y-69701816D01*
X171841011Y-69405257D01*
X171725299Y-69125905D01*
X171631817Y-68986000D01*
X175236453Y-68986000D01*
X175214010Y-69019589D01*
X175102068Y-69289842D01*
X175045000Y-69576740D01*
X175045000Y-69869260D01*
X175102068Y-70156158D01*
X175214010Y-70426411D01*
X175376525Y-70669632D01*
X175583368Y-70876475D01*
X175757760Y-70993000D01*
X175583368Y-71109525D01*
X175376525Y-71316368D01*
X175214010Y-71559589D01*
X175102068Y-71829842D01*
X175045000Y-72116740D01*
X175045000Y-72409260D01*
X175102068Y-72696158D01*
X175214010Y-72966411D01*
X175376525Y-73209632D01*
X175508380Y-73341487D01*
X175435820Y-73363498D01*
X175325506Y-73422463D01*
X175228815Y-73501815D01*
X175149463Y-73598506D01*
X175090498Y-73708820D01*
X175054188Y-73828518D01*
X175041928Y-73953000D01*
X175045000Y-74517250D01*
X175203750Y-74676000D01*
X176403000Y-74676000D01*
X176403000Y-74656000D01*
X176657000Y-74656000D01*
X176657000Y-74676000D01*
X177856250Y-74676000D01*
X178015000Y-74517250D01*
X178018072Y-73953000D01*
X178005812Y-73828518D01*
X177969502Y-73708820D01*
X177910537Y-73598506D01*
X177831185Y-73501815D01*
X177734494Y-73422463D01*
X177624180Y-73363498D01*
X177551620Y-73341487D01*
X177683475Y-73209632D01*
X177845990Y-72966411D01*
X177957932Y-72696158D01*
X178015000Y-72409260D01*
X178015000Y-72116740D01*
X177957932Y-71829842D01*
X177845990Y-71559589D01*
X177683475Y-71316368D01*
X177476632Y-71109525D01*
X177302240Y-70993000D01*
X177476632Y-70876475D01*
X177683475Y-70669632D01*
X177845990Y-70426411D01*
X177957932Y-70156158D01*
X178015000Y-69869260D01*
X178015000Y-69576740D01*
X177957932Y-69289842D01*
X177845990Y-69019589D01*
X177823547Y-68986000D01*
X178646674Y-68986000D01*
X178685598Y-69111743D01*
X178708773Y-69166875D01*
X178731186Y-69222349D01*
X178735513Y-69230486D01*
X178876979Y-69492122D01*
X178910412Y-69541689D01*
X178943183Y-69591768D01*
X178949007Y-69598909D01*
X179138597Y-69828084D01*
X179181015Y-69870206D01*
X179222897Y-69912976D01*
X179229998Y-69918850D01*
X179460492Y-70106836D01*
X179510334Y-70139951D01*
X179559674Y-70173735D01*
X179567781Y-70178118D01*
X179830399Y-70317754D01*
X179885701Y-70340548D01*
X179940684Y-70364114D01*
X179949487Y-70366839D01*
X180061001Y-70400507D01*
X180061000Y-118448674D01*
X179935257Y-118487598D01*
X179880139Y-118510768D01*
X179824650Y-118533186D01*
X179816514Y-118537513D01*
X179554878Y-118678979D01*
X179505311Y-118712412D01*
X179455232Y-118745183D01*
X179448091Y-118751008D01*
X179218915Y-118940597D01*
X179176774Y-118983034D01*
X179134024Y-119024897D01*
X179128150Y-119031998D01*
X178940164Y-119262492D01*
X178907049Y-119312334D01*
X178873265Y-119361674D01*
X178868882Y-119369781D01*
X178729246Y-119632399D01*
X178706458Y-119687687D01*
X178682886Y-119742683D01*
X178680162Y-119751487D01*
X178646494Y-119863000D01*
X145584326Y-119863000D01*
X145545402Y-119737257D01*
X145522232Y-119682139D01*
X145499814Y-119626650D01*
X145495487Y-119618514D01*
X145354021Y-119356878D01*
X145320588Y-119307311D01*
X145287817Y-119257232D01*
X145281992Y-119250091D01*
X145092403Y-119020915D01*
X145049966Y-118978774D01*
X145008103Y-118936024D01*
X145001002Y-118930150D01*
X144770508Y-118742164D01*
X144720666Y-118709049D01*
X144671326Y-118675265D01*
X144663219Y-118670882D01*
X144400601Y-118531246D01*
X144345313Y-118508458D01*
X144290317Y-118484886D01*
X144281513Y-118482162D01*
X144281515Y-118482162D01*
X144281507Y-118482160D01*
X144170000Y-118448494D01*
X144170000Y-117078000D01*
X146466928Y-117078000D01*
X146479188Y-117202482D01*
X146515498Y-117322180D01*
X146574463Y-117432494D01*
X146653815Y-117529185D01*
X146750506Y-117608537D01*
X146860820Y-117667502D01*
X146980518Y-117703812D01*
X147105000Y-117716072D01*
X147669250Y-117713000D01*
X147828000Y-117554250D01*
X147828000Y-116205000D01*
X146628750Y-116205000D01*
X146470000Y-116363750D01*
X146466928Y-117078000D01*
X144170000Y-117078000D01*
X144170000Y-115078000D01*
X146466928Y-115078000D01*
X146470000Y-115792250D01*
X146628750Y-115951000D01*
X147828000Y-115951000D01*
X147828000Y-114601750D01*
X148082000Y-114601750D01*
X148082000Y-115951000D01*
X148102000Y-115951000D01*
X148102000Y-116205000D01*
X148082000Y-116205000D01*
X148082000Y-117554250D01*
X148240750Y-117713000D01*
X148805000Y-117716072D01*
X148929482Y-117703812D01*
X149049180Y-117667502D01*
X149159494Y-117608537D01*
X149256185Y-117529185D01*
X149335537Y-117432494D01*
X149394502Y-117322180D01*
X149405055Y-117287392D01*
X149625987Y-117468706D01*
X149883967Y-117606599D01*
X150163890Y-117691513D01*
X150455000Y-117720185D01*
X150746111Y-117691513D01*
X151026034Y-117606599D01*
X151284014Y-117468706D01*
X151510134Y-117283134D01*
X151695706Y-117057014D01*
X151833599Y-116799033D01*
X151918513Y-116519110D01*
X151940000Y-116300949D01*
X151940000Y-115855050D01*
X151918513Y-115636889D01*
X151833599Y-115356966D01*
X151695706Y-115098986D01*
X151510134Y-114872866D01*
X151284013Y-114687294D01*
X151026033Y-114549401D01*
X150746110Y-114464487D01*
X150455000Y-114435815D01*
X150163889Y-114464487D01*
X149883966Y-114549401D01*
X149625986Y-114687294D01*
X149405055Y-114868608D01*
X149394502Y-114833820D01*
X149335537Y-114723506D01*
X149256185Y-114626815D01*
X149159494Y-114547463D01*
X149049180Y-114488498D01*
X148929482Y-114452188D01*
X148805000Y-114439928D01*
X148240750Y-114443000D01*
X148082000Y-114601750D01*
X147828000Y-114601750D01*
X147669250Y-114443000D01*
X147105000Y-114439928D01*
X146980518Y-114452188D01*
X146860820Y-114488498D01*
X146750506Y-114547463D01*
X146653815Y-114626815D01*
X146574463Y-114723506D01*
X146515498Y-114833820D01*
X146479188Y-114953518D01*
X146466928Y-115078000D01*
X144170000Y-115078000D01*
X144170000Y-113753000D01*
X157261928Y-113753000D01*
X157274188Y-113877482D01*
X157310498Y-113997180D01*
X157369463Y-114107494D01*
X157448815Y-114204185D01*
X157545506Y-114283537D01*
X157655820Y-114342502D01*
X157728380Y-114364513D01*
X157596525Y-114496368D01*
X157434010Y-114739589D01*
X157322068Y-115009842D01*
X157265000Y-115296740D01*
X157265000Y-115589260D01*
X157322068Y-115876158D01*
X157434010Y-116146411D01*
X157596525Y-116389632D01*
X157803368Y-116596475D01*
X157977760Y-116713000D01*
X157803368Y-116829525D01*
X157596525Y-117036368D01*
X157434010Y-117279589D01*
X157322068Y-117549842D01*
X157265000Y-117836740D01*
X157265000Y-118129260D01*
X157322068Y-118416158D01*
X157434010Y-118686411D01*
X157596525Y-118929632D01*
X157803368Y-119136475D01*
X158046589Y-119298990D01*
X158316842Y-119410932D01*
X158603740Y-119468000D01*
X158896260Y-119468000D01*
X159183158Y-119410932D01*
X159453411Y-119298990D01*
X159696632Y-119136475D01*
X159903475Y-118929632D01*
X160065990Y-118686411D01*
X160177932Y-118416158D01*
X160235000Y-118129260D01*
X160235000Y-117836740D01*
X160189250Y-117606740D01*
X163615000Y-117606740D01*
X163615000Y-117899260D01*
X163672068Y-118186158D01*
X163784010Y-118456411D01*
X163946525Y-118699632D01*
X164153368Y-118906475D01*
X164396589Y-119068990D01*
X164666842Y-119180932D01*
X164953740Y-119238000D01*
X165246260Y-119238000D01*
X165533158Y-119180932D01*
X165803411Y-119068990D01*
X166046632Y-118906475D01*
X166178487Y-118774620D01*
X166200498Y-118847180D01*
X166259463Y-118957494D01*
X166338815Y-119054185D01*
X166435506Y-119133537D01*
X166545820Y-119192502D01*
X166665518Y-119228812D01*
X166790000Y-119241072D01*
X167354250Y-119238000D01*
X167513000Y-119079250D01*
X167513000Y-117880000D01*
X167493000Y-117880000D01*
X167493000Y-117626000D01*
X167513000Y-117626000D01*
X167513000Y-116426750D01*
X167767000Y-116426750D01*
X167767000Y-117626000D01*
X167787000Y-117626000D01*
X167787000Y-117880000D01*
X167767000Y-117880000D01*
X167767000Y-119079250D01*
X167925750Y-119238000D01*
X168490000Y-119241072D01*
X168614482Y-119228812D01*
X168734180Y-119192502D01*
X168844494Y-119133537D01*
X168941185Y-119054185D01*
X169020537Y-118957494D01*
X169079502Y-118847180D01*
X169101513Y-118774620D01*
X169233368Y-118906475D01*
X169476589Y-119068990D01*
X169746842Y-119180932D01*
X170033740Y-119238000D01*
X170326260Y-119238000D01*
X170613158Y-119180932D01*
X170883411Y-119068990D01*
X171126632Y-118906475D01*
X171333475Y-118699632D01*
X171495990Y-118456411D01*
X171607932Y-118186158D01*
X171665000Y-117899260D01*
X171665000Y-117606740D01*
X171607932Y-117319842D01*
X171495990Y-117049589D01*
X171333475Y-116806368D01*
X171126632Y-116599525D01*
X170883411Y-116437010D01*
X170613158Y-116325068D01*
X170326260Y-116268000D01*
X170033740Y-116268000D01*
X169746842Y-116325068D01*
X169476589Y-116437010D01*
X169233368Y-116599525D01*
X169101513Y-116731380D01*
X169079502Y-116658820D01*
X169020537Y-116548506D01*
X168941185Y-116451815D01*
X168844494Y-116372463D01*
X168734180Y-116313498D01*
X168614482Y-116277188D01*
X168490000Y-116264928D01*
X167925750Y-116268000D01*
X167767000Y-116426750D01*
X167513000Y-116426750D01*
X167354250Y-116268000D01*
X166790000Y-116264928D01*
X166665518Y-116277188D01*
X166545820Y-116313498D01*
X166435506Y-116372463D01*
X166338815Y-116451815D01*
X166259463Y-116548506D01*
X166200498Y-116658820D01*
X166178487Y-116731380D01*
X166046632Y-116599525D01*
X165803411Y-116437010D01*
X165533158Y-116325068D01*
X165246260Y-116268000D01*
X164953740Y-116268000D01*
X164666842Y-116325068D01*
X164396589Y-116437010D01*
X164153368Y-116599525D01*
X163946525Y-116806368D01*
X163784010Y-117049589D01*
X163672068Y-117319842D01*
X163615000Y-117606740D01*
X160189250Y-117606740D01*
X160177932Y-117549842D01*
X160065990Y-117279589D01*
X159903475Y-117036368D01*
X159696632Y-116829525D01*
X159522240Y-116713000D01*
X159696632Y-116596475D01*
X159903475Y-116389632D01*
X160065990Y-116146411D01*
X160177932Y-115876158D01*
X160235000Y-115589260D01*
X160235000Y-115296740D01*
X160177932Y-115009842D01*
X160065990Y-114739589D01*
X159903475Y-114496368D01*
X159771620Y-114364513D01*
X159844180Y-114342502D01*
X159954494Y-114283537D01*
X160051185Y-114204185D01*
X160130537Y-114107494D01*
X160189502Y-113997180D01*
X160225812Y-113877482D01*
X160238072Y-113753000D01*
X175041928Y-113753000D01*
X175054188Y-113877482D01*
X175090498Y-113997180D01*
X175149463Y-114107494D01*
X175228815Y-114204185D01*
X175325506Y-114283537D01*
X175435820Y-114342502D01*
X175508380Y-114364513D01*
X175376525Y-114496368D01*
X175214010Y-114739589D01*
X175102068Y-115009842D01*
X175045000Y-115296740D01*
X175045000Y-115589260D01*
X175102068Y-115876158D01*
X175214010Y-116146411D01*
X175376525Y-116389632D01*
X175583368Y-116596475D01*
X175757760Y-116713000D01*
X175583368Y-116829525D01*
X175376525Y-117036368D01*
X175214010Y-117279589D01*
X175102068Y-117549842D01*
X175045000Y-117836740D01*
X175045000Y-118129260D01*
X175102068Y-118416158D01*
X175214010Y-118686411D01*
X175376525Y-118929632D01*
X175583368Y-119136475D01*
X175826589Y-119298990D01*
X176096842Y-119410932D01*
X176383740Y-119468000D01*
X176676260Y-119468000D01*
X176963158Y-119410932D01*
X177233411Y-119298990D01*
X177476632Y-119136475D01*
X177683475Y-118929632D01*
X177845990Y-118686411D01*
X177957932Y-118416158D01*
X178015000Y-118129260D01*
X178015000Y-117836740D01*
X177957932Y-117549842D01*
X177845990Y-117279589D01*
X177683475Y-117036368D01*
X177476632Y-116829525D01*
X177302240Y-116713000D01*
X177476632Y-116596475D01*
X177683475Y-116389632D01*
X177845990Y-116146411D01*
X177957932Y-115876158D01*
X178015000Y-115589260D01*
X178015000Y-115296740D01*
X177957932Y-115009842D01*
X177845990Y-114739589D01*
X177683475Y-114496368D01*
X177551620Y-114364513D01*
X177624180Y-114342502D01*
X177734494Y-114283537D01*
X177831185Y-114204185D01*
X177910537Y-114107494D01*
X177969502Y-113997180D01*
X178005812Y-113877482D01*
X178018072Y-113753000D01*
X178015000Y-113188750D01*
X177856250Y-113030000D01*
X176657000Y-113030000D01*
X176657000Y-113050000D01*
X176403000Y-113050000D01*
X176403000Y-113030000D01*
X175203750Y-113030000D01*
X175045000Y-113188750D01*
X175041928Y-113753000D01*
X160238072Y-113753000D01*
X160235000Y-113188750D01*
X160076250Y-113030000D01*
X158877000Y-113030000D01*
X158877000Y-113050000D01*
X158623000Y-113050000D01*
X158623000Y-113030000D01*
X157423750Y-113030000D01*
X157265000Y-113188750D01*
X157261928Y-113753000D01*
X144170000Y-113753000D01*
X144170000Y-110728000D01*
X146466928Y-110728000D01*
X146479188Y-110852482D01*
X146515498Y-110972180D01*
X146574463Y-111082494D01*
X146653815Y-111179185D01*
X146750506Y-111258537D01*
X146860820Y-111317502D01*
X146980518Y-111353812D01*
X147105000Y-111366072D01*
X147669250Y-111363000D01*
X147828000Y-111204250D01*
X147828000Y-109855000D01*
X146628750Y-109855000D01*
X146470000Y-110013750D01*
X146466928Y-110728000D01*
X144170000Y-110728000D01*
X144170000Y-108728000D01*
X146466928Y-108728000D01*
X146470000Y-109442250D01*
X146628750Y-109601000D01*
X147828000Y-109601000D01*
X147828000Y-108251750D01*
X148082000Y-108251750D01*
X148082000Y-109601000D01*
X148102000Y-109601000D01*
X148102000Y-109855000D01*
X148082000Y-109855000D01*
X148082000Y-111204250D01*
X148240750Y-111363000D01*
X148805000Y-111366072D01*
X148929482Y-111353812D01*
X149049180Y-111317502D01*
X149159494Y-111258537D01*
X149256185Y-111179185D01*
X149335537Y-111082494D01*
X149394502Y-110972180D01*
X149405055Y-110937392D01*
X149625987Y-111118706D01*
X149883967Y-111256599D01*
X150163890Y-111341513D01*
X150455000Y-111370185D01*
X150746111Y-111341513D01*
X151026034Y-111256599D01*
X151284014Y-111118706D01*
X151510134Y-110933134D01*
X151695706Y-110707014D01*
X151833599Y-110449033D01*
X151918513Y-110169110D01*
X151940000Y-109950949D01*
X151940000Y-109505050D01*
X151918513Y-109286889D01*
X151833599Y-109006966D01*
X151695706Y-108748986D01*
X151510134Y-108522866D01*
X151284013Y-108337294D01*
X151026033Y-108199401D01*
X150746110Y-108114487D01*
X150455000Y-108085815D01*
X150163889Y-108114487D01*
X149883966Y-108199401D01*
X149625986Y-108337294D01*
X149405055Y-108518608D01*
X149394502Y-108483820D01*
X149335537Y-108373506D01*
X149256185Y-108276815D01*
X149159494Y-108197463D01*
X149049180Y-108138498D01*
X148929482Y-108102188D01*
X148805000Y-108089928D01*
X148240750Y-108093000D01*
X148082000Y-108251750D01*
X147828000Y-108251750D01*
X147669250Y-108093000D01*
X147105000Y-108089928D01*
X146980518Y-108102188D01*
X146860820Y-108138498D01*
X146750506Y-108197463D01*
X146653815Y-108276815D01*
X146574463Y-108373506D01*
X146515498Y-108483820D01*
X146479188Y-108603518D01*
X146466928Y-108728000D01*
X144170000Y-108728000D01*
X144170000Y-104378000D01*
X146466928Y-104378000D01*
X146479188Y-104502482D01*
X146515498Y-104622180D01*
X146574463Y-104732494D01*
X146653815Y-104829185D01*
X146750506Y-104908537D01*
X146860820Y-104967502D01*
X146980518Y-105003812D01*
X147105000Y-105016072D01*
X147669250Y-105013000D01*
X147828000Y-104854250D01*
X147828000Y-103505000D01*
X146628750Y-103505000D01*
X146470000Y-103663750D01*
X146466928Y-104378000D01*
X144170000Y-104378000D01*
X144170000Y-102378000D01*
X146466928Y-102378000D01*
X146470000Y-103092250D01*
X146628750Y-103251000D01*
X147828000Y-103251000D01*
X147828000Y-101901750D01*
X148082000Y-101901750D01*
X148082000Y-103251000D01*
X148102000Y-103251000D01*
X148102000Y-103505000D01*
X148082000Y-103505000D01*
X148082000Y-104854250D01*
X148240750Y-105013000D01*
X148805000Y-105016072D01*
X148929482Y-105003812D01*
X149049180Y-104967502D01*
X149159494Y-104908537D01*
X149256185Y-104829185D01*
X149335537Y-104732494D01*
X149394502Y-104622180D01*
X149405055Y-104587392D01*
X149625987Y-104768706D01*
X149883967Y-104906599D01*
X150163890Y-104991513D01*
X150455000Y-105020185D01*
X150746111Y-104991513D01*
X151026034Y-104906599D01*
X151284014Y-104768706D01*
X151510134Y-104583134D01*
X151695706Y-104357014D01*
X151833599Y-104099033D01*
X151918513Y-103819110D01*
X151940000Y-103600949D01*
X151940000Y-103155050D01*
X151918513Y-102936889D01*
X151833599Y-102656966D01*
X151695706Y-102398986D01*
X151510134Y-102172866D01*
X151284013Y-101987294D01*
X151026033Y-101849401D01*
X150746110Y-101764487D01*
X150455000Y-101735815D01*
X150163889Y-101764487D01*
X149883966Y-101849401D01*
X149625986Y-101987294D01*
X149405055Y-102168608D01*
X149394502Y-102133820D01*
X149335537Y-102023506D01*
X149256185Y-101926815D01*
X149159494Y-101847463D01*
X149049180Y-101788498D01*
X148929482Y-101752188D01*
X148805000Y-101739928D01*
X148240750Y-101743000D01*
X148082000Y-101901750D01*
X147828000Y-101901750D01*
X147669250Y-101743000D01*
X147105000Y-101739928D01*
X146980518Y-101752188D01*
X146860820Y-101788498D01*
X146750506Y-101847463D01*
X146653815Y-101926815D01*
X146574463Y-102023506D01*
X146515498Y-102133820D01*
X146479188Y-102253518D01*
X146466928Y-102378000D01*
X144170000Y-102378000D01*
X144170000Y-101053000D01*
X157261928Y-101053000D01*
X157274188Y-101177482D01*
X157310498Y-101297180D01*
X157369463Y-101407494D01*
X157448815Y-101504185D01*
X157545506Y-101583537D01*
X157655820Y-101642502D01*
X157728380Y-101664513D01*
X157596525Y-101796368D01*
X157434010Y-102039589D01*
X157322068Y-102309842D01*
X157265000Y-102596740D01*
X157265000Y-102889260D01*
X157322068Y-103176158D01*
X157434010Y-103446411D01*
X157596525Y-103689632D01*
X157803368Y-103896475D01*
X157977760Y-104013000D01*
X157803368Y-104129525D01*
X157596525Y-104336368D01*
X157434010Y-104579589D01*
X157322068Y-104849842D01*
X157265000Y-105136740D01*
X157265000Y-105429260D01*
X157322068Y-105716158D01*
X157434010Y-105986411D01*
X157596525Y-106229632D01*
X157803368Y-106436475D01*
X157977760Y-106553000D01*
X157803368Y-106669525D01*
X157596525Y-106876368D01*
X157434010Y-107119589D01*
X157322068Y-107389842D01*
X157265000Y-107676740D01*
X157265000Y-107969260D01*
X157322068Y-108256158D01*
X157434010Y-108526411D01*
X157596525Y-108769632D01*
X157803368Y-108976475D01*
X157977760Y-109093000D01*
X157803368Y-109209525D01*
X157596525Y-109416368D01*
X157434010Y-109659589D01*
X157322068Y-109929842D01*
X157265000Y-110216740D01*
X157265000Y-110509260D01*
X157322068Y-110796158D01*
X157434010Y-111066411D01*
X157596525Y-111309632D01*
X157728380Y-111441487D01*
X157655820Y-111463498D01*
X157545506Y-111522463D01*
X157448815Y-111601815D01*
X157369463Y-111698506D01*
X157310498Y-111808820D01*
X157274188Y-111928518D01*
X157261928Y-112053000D01*
X157265000Y-112617250D01*
X157423750Y-112776000D01*
X158623000Y-112776000D01*
X158623000Y-112756000D01*
X158877000Y-112756000D01*
X158877000Y-112776000D01*
X160076250Y-112776000D01*
X160235000Y-112617250D01*
X160238072Y-112053000D01*
X160225812Y-111928518D01*
X160189502Y-111808820D01*
X160130537Y-111698506D01*
X160051185Y-111601815D01*
X159954494Y-111522463D01*
X159844180Y-111463498D01*
X159771620Y-111441487D01*
X159903475Y-111309632D01*
X160065990Y-111066411D01*
X160177932Y-110796158D01*
X160235000Y-110509260D01*
X160235000Y-110216740D01*
X160177932Y-109929842D01*
X160065990Y-109659589D01*
X159903475Y-109416368D01*
X159696632Y-109209525D01*
X159522240Y-109093000D01*
X159696632Y-108976475D01*
X159903475Y-108769632D01*
X160065990Y-108526411D01*
X160177932Y-108256158D01*
X160235000Y-107969260D01*
X160235000Y-107676740D01*
X160177932Y-107389842D01*
X160065990Y-107119589D01*
X159903475Y-106876368D01*
X159696632Y-106669525D01*
X159522240Y-106553000D01*
X159696632Y-106436475D01*
X159903475Y-106229632D01*
X160065990Y-105986411D01*
X160177932Y-105716158D01*
X160235000Y-105429260D01*
X160235000Y-105136740D01*
X160177932Y-104849842D01*
X160065990Y-104579589D01*
X159903475Y-104336368D01*
X159696632Y-104129525D01*
X159522240Y-104013000D01*
X159696632Y-103896475D01*
X159903475Y-103689632D01*
X160065990Y-103446411D01*
X160177932Y-103176158D01*
X160235000Y-102889260D01*
X160235000Y-102596740D01*
X160177932Y-102309842D01*
X160065990Y-102039589D01*
X159903475Y-101796368D01*
X159771620Y-101664513D01*
X159844180Y-101642502D01*
X159954494Y-101583537D01*
X160051185Y-101504185D01*
X160130537Y-101407494D01*
X160189502Y-101297180D01*
X160225812Y-101177482D01*
X160238072Y-101053000D01*
X175041928Y-101053000D01*
X175054188Y-101177482D01*
X175090498Y-101297180D01*
X175149463Y-101407494D01*
X175228815Y-101504185D01*
X175325506Y-101583537D01*
X175435820Y-101642502D01*
X175508380Y-101664513D01*
X175376525Y-101796368D01*
X175214010Y-102039589D01*
X175102068Y-102309842D01*
X175045000Y-102596740D01*
X175045000Y-102889260D01*
X175102068Y-103176158D01*
X175214010Y-103446411D01*
X175376525Y-103689632D01*
X175583368Y-103896475D01*
X175757760Y-104013000D01*
X175583368Y-104129525D01*
X175376525Y-104336368D01*
X175214010Y-104579589D01*
X175102068Y-104849842D01*
X175045000Y-105136740D01*
X175045000Y-105429260D01*
X175102068Y-105716158D01*
X175214010Y-105986411D01*
X175376525Y-106229632D01*
X175583368Y-106436475D01*
X175757760Y-106553000D01*
X175583368Y-106669525D01*
X175376525Y-106876368D01*
X175214010Y-107119589D01*
X175102068Y-107389842D01*
X175045000Y-107676740D01*
X175045000Y-107969260D01*
X175102068Y-108256158D01*
X175214010Y-108526411D01*
X175376525Y-108769632D01*
X175583368Y-108976475D01*
X175757760Y-109093000D01*
X175583368Y-109209525D01*
X175376525Y-109416368D01*
X175214010Y-109659589D01*
X175102068Y-109929842D01*
X175045000Y-110216740D01*
X175045000Y-110509260D01*
X175102068Y-110796158D01*
X175214010Y-111066411D01*
X175376525Y-111309632D01*
X175508380Y-111441487D01*
X175435820Y-111463498D01*
X175325506Y-111522463D01*
X175228815Y-111601815D01*
X175149463Y-111698506D01*
X175090498Y-111808820D01*
X175054188Y-111928518D01*
X175041928Y-112053000D01*
X175045000Y-112617250D01*
X175203750Y-112776000D01*
X176403000Y-112776000D01*
X176403000Y-112756000D01*
X176657000Y-112756000D01*
X176657000Y-112776000D01*
X177856250Y-112776000D01*
X178015000Y-112617250D01*
X178018072Y-112053000D01*
X178005812Y-111928518D01*
X177969502Y-111808820D01*
X177910537Y-111698506D01*
X177831185Y-111601815D01*
X177734494Y-111522463D01*
X177624180Y-111463498D01*
X177551620Y-111441487D01*
X177683475Y-111309632D01*
X177845990Y-111066411D01*
X177957932Y-110796158D01*
X178015000Y-110509260D01*
X178015000Y-110216740D01*
X177957932Y-109929842D01*
X177845990Y-109659589D01*
X177683475Y-109416368D01*
X177476632Y-109209525D01*
X177302240Y-109093000D01*
X177476632Y-108976475D01*
X177683475Y-108769632D01*
X177845990Y-108526411D01*
X177957932Y-108256158D01*
X178015000Y-107969260D01*
X178015000Y-107676740D01*
X177957932Y-107389842D01*
X177845990Y-107119589D01*
X177683475Y-106876368D01*
X177476632Y-106669525D01*
X177302240Y-106553000D01*
X177476632Y-106436475D01*
X177683475Y-106229632D01*
X177845990Y-105986411D01*
X177957932Y-105716158D01*
X178015000Y-105429260D01*
X178015000Y-105136740D01*
X177957932Y-104849842D01*
X177845990Y-104579589D01*
X177683475Y-104336368D01*
X177476632Y-104129525D01*
X177302240Y-104013000D01*
X177476632Y-103896475D01*
X177683475Y-103689632D01*
X177845990Y-103446411D01*
X177957932Y-103176158D01*
X178015000Y-102889260D01*
X178015000Y-102596740D01*
X177957932Y-102309842D01*
X177845990Y-102039589D01*
X177683475Y-101796368D01*
X177551620Y-101664513D01*
X177624180Y-101642502D01*
X177734494Y-101583537D01*
X177831185Y-101504185D01*
X177910537Y-101407494D01*
X177969502Y-101297180D01*
X178005812Y-101177482D01*
X178018072Y-101053000D01*
X178015000Y-100488750D01*
X177856250Y-100330000D01*
X176657000Y-100330000D01*
X176657000Y-100350000D01*
X176403000Y-100350000D01*
X176403000Y-100330000D01*
X175203750Y-100330000D01*
X175045000Y-100488750D01*
X175041928Y-101053000D01*
X160238072Y-101053000D01*
X160235000Y-100488750D01*
X160076250Y-100330000D01*
X158877000Y-100330000D01*
X158877000Y-100350000D01*
X158623000Y-100350000D01*
X158623000Y-100330000D01*
X157423750Y-100330000D01*
X157265000Y-100488750D01*
X157261928Y-101053000D01*
X144170000Y-101053000D01*
X144170000Y-98028000D01*
X146466928Y-98028000D01*
X146479188Y-98152482D01*
X146515498Y-98272180D01*
X146574463Y-98382494D01*
X146653815Y-98479185D01*
X146750506Y-98558537D01*
X146860820Y-98617502D01*
X146980518Y-98653812D01*
X147105000Y-98666072D01*
X147669250Y-98663000D01*
X147828000Y-98504250D01*
X147828000Y-97155000D01*
X146628750Y-97155000D01*
X146470000Y-97313750D01*
X146466928Y-98028000D01*
X144170000Y-98028000D01*
X144170000Y-96028000D01*
X146466928Y-96028000D01*
X146470000Y-96742250D01*
X146628750Y-96901000D01*
X147828000Y-96901000D01*
X147828000Y-95551750D01*
X148082000Y-95551750D01*
X148082000Y-96901000D01*
X148102000Y-96901000D01*
X148102000Y-97155000D01*
X148082000Y-97155000D01*
X148082000Y-98504250D01*
X148240750Y-98663000D01*
X148805000Y-98666072D01*
X148929482Y-98653812D01*
X149049180Y-98617502D01*
X149159494Y-98558537D01*
X149256185Y-98479185D01*
X149335537Y-98382494D01*
X149394502Y-98272180D01*
X149405055Y-98237392D01*
X149625987Y-98418706D01*
X149883967Y-98556599D01*
X150163890Y-98641513D01*
X150455000Y-98670185D01*
X150746111Y-98641513D01*
X151026034Y-98556599D01*
X151284014Y-98418706D01*
X151510134Y-98233134D01*
X151695706Y-98007014D01*
X151833599Y-97749033D01*
X151918513Y-97469110D01*
X151940000Y-97250949D01*
X151940000Y-96805050D01*
X151918513Y-96586889D01*
X151833599Y-96306966D01*
X151695706Y-96048986D01*
X151510134Y-95822866D01*
X151284013Y-95637294D01*
X151026033Y-95499401D01*
X150746110Y-95414487D01*
X150455000Y-95385815D01*
X150163889Y-95414487D01*
X149883966Y-95499401D01*
X149625986Y-95637294D01*
X149405055Y-95818608D01*
X149394502Y-95783820D01*
X149335537Y-95673506D01*
X149256185Y-95576815D01*
X149159494Y-95497463D01*
X149049180Y-95438498D01*
X148929482Y-95402188D01*
X148805000Y-95389928D01*
X148240750Y-95393000D01*
X148082000Y-95551750D01*
X147828000Y-95551750D01*
X147669250Y-95393000D01*
X147105000Y-95389928D01*
X146980518Y-95402188D01*
X146860820Y-95438498D01*
X146750506Y-95497463D01*
X146653815Y-95576815D01*
X146574463Y-95673506D01*
X146515498Y-95783820D01*
X146479188Y-95903518D01*
X146466928Y-96028000D01*
X144170000Y-96028000D01*
X144170000Y-91678000D01*
X146466928Y-91678000D01*
X146479188Y-91802482D01*
X146515498Y-91922180D01*
X146574463Y-92032494D01*
X146653815Y-92129185D01*
X146750506Y-92208537D01*
X146860820Y-92267502D01*
X146980518Y-92303812D01*
X147105000Y-92316072D01*
X147669250Y-92313000D01*
X147828000Y-92154250D01*
X147828000Y-90805000D01*
X146628750Y-90805000D01*
X146470000Y-90963750D01*
X146466928Y-91678000D01*
X144170000Y-91678000D01*
X144170000Y-89678000D01*
X146466928Y-89678000D01*
X146470000Y-90392250D01*
X146628750Y-90551000D01*
X147828000Y-90551000D01*
X147828000Y-89201750D01*
X148082000Y-89201750D01*
X148082000Y-90551000D01*
X148102000Y-90551000D01*
X148102000Y-90805000D01*
X148082000Y-90805000D01*
X148082000Y-92154250D01*
X148240750Y-92313000D01*
X148805000Y-92316072D01*
X148929482Y-92303812D01*
X149049180Y-92267502D01*
X149159494Y-92208537D01*
X149256185Y-92129185D01*
X149335537Y-92032494D01*
X149394502Y-91922180D01*
X149405055Y-91887392D01*
X149625987Y-92068706D01*
X149883967Y-92206599D01*
X150163890Y-92291513D01*
X150455000Y-92320185D01*
X150746111Y-92291513D01*
X151026034Y-92206599D01*
X151284014Y-92068706D01*
X151510134Y-91883134D01*
X151695706Y-91657014D01*
X151833599Y-91399033D01*
X151918513Y-91119110D01*
X151940000Y-90900949D01*
X151940000Y-90455050D01*
X151918513Y-90236889D01*
X151833599Y-89956966D01*
X151695706Y-89698986D01*
X151510134Y-89472866D01*
X151284013Y-89287294D01*
X151026033Y-89149401D01*
X150746110Y-89064487D01*
X150455000Y-89035815D01*
X150163889Y-89064487D01*
X149883966Y-89149401D01*
X149625986Y-89287294D01*
X149405055Y-89468608D01*
X149394502Y-89433820D01*
X149335537Y-89323506D01*
X149256185Y-89226815D01*
X149159494Y-89147463D01*
X149049180Y-89088498D01*
X148929482Y-89052188D01*
X148805000Y-89039928D01*
X148240750Y-89043000D01*
X148082000Y-89201750D01*
X147828000Y-89201750D01*
X147669250Y-89043000D01*
X147105000Y-89039928D01*
X146980518Y-89052188D01*
X146860820Y-89088498D01*
X146750506Y-89147463D01*
X146653815Y-89226815D01*
X146574463Y-89323506D01*
X146515498Y-89433820D01*
X146479188Y-89553518D01*
X146466928Y-89678000D01*
X144170000Y-89678000D01*
X144170000Y-88353000D01*
X157261928Y-88353000D01*
X157274188Y-88477482D01*
X157310498Y-88597180D01*
X157369463Y-88707494D01*
X157448815Y-88804185D01*
X157545506Y-88883537D01*
X157655820Y-88942502D01*
X157728380Y-88964513D01*
X157596525Y-89096368D01*
X157434010Y-89339589D01*
X157322068Y-89609842D01*
X157265000Y-89896740D01*
X157265000Y-90189260D01*
X157322068Y-90476158D01*
X157434010Y-90746411D01*
X157596525Y-90989632D01*
X157803368Y-91196475D01*
X157977760Y-91313000D01*
X157803368Y-91429525D01*
X157596525Y-91636368D01*
X157434010Y-91879589D01*
X157322068Y-92149842D01*
X157265000Y-92436740D01*
X157265000Y-92729260D01*
X157322068Y-93016158D01*
X157434010Y-93286411D01*
X157596525Y-93529632D01*
X157803368Y-93736475D01*
X157977760Y-93853000D01*
X157803368Y-93969525D01*
X157596525Y-94176368D01*
X157434010Y-94419589D01*
X157322068Y-94689842D01*
X157265000Y-94976740D01*
X157265000Y-95269260D01*
X157322068Y-95556158D01*
X157434010Y-95826411D01*
X157596525Y-96069632D01*
X157803368Y-96276475D01*
X157977760Y-96393000D01*
X157803368Y-96509525D01*
X157596525Y-96716368D01*
X157434010Y-96959589D01*
X157322068Y-97229842D01*
X157265000Y-97516740D01*
X157265000Y-97809260D01*
X157322068Y-98096158D01*
X157434010Y-98366411D01*
X157596525Y-98609632D01*
X157728380Y-98741487D01*
X157655820Y-98763498D01*
X157545506Y-98822463D01*
X157448815Y-98901815D01*
X157369463Y-98998506D01*
X157310498Y-99108820D01*
X157274188Y-99228518D01*
X157261928Y-99353000D01*
X157265000Y-99917250D01*
X157423750Y-100076000D01*
X158623000Y-100076000D01*
X158623000Y-100056000D01*
X158877000Y-100056000D01*
X158877000Y-100076000D01*
X160076250Y-100076000D01*
X160235000Y-99917250D01*
X160238072Y-99353000D01*
X160225812Y-99228518D01*
X160189502Y-99108820D01*
X160130537Y-98998506D01*
X160051185Y-98901815D01*
X159954494Y-98822463D01*
X159844180Y-98763498D01*
X159771620Y-98741487D01*
X159903475Y-98609632D01*
X160065990Y-98366411D01*
X160177932Y-98096158D01*
X160235000Y-97809260D01*
X160235000Y-97516740D01*
X160177932Y-97229842D01*
X160065990Y-96959589D01*
X159903475Y-96716368D01*
X159696632Y-96509525D01*
X159522240Y-96393000D01*
X159696632Y-96276475D01*
X159903475Y-96069632D01*
X160065990Y-95826411D01*
X160177932Y-95556158D01*
X160235000Y-95269260D01*
X160235000Y-94976740D01*
X160177932Y-94689842D01*
X160065990Y-94419589D01*
X159903475Y-94176368D01*
X159696632Y-93969525D01*
X159522240Y-93853000D01*
X159696632Y-93736475D01*
X159903475Y-93529632D01*
X160065990Y-93286411D01*
X160177932Y-93016158D01*
X160235000Y-92729260D01*
X160235000Y-92436740D01*
X160177932Y-92149842D01*
X160065990Y-91879589D01*
X159903475Y-91636368D01*
X159696632Y-91429525D01*
X159522240Y-91313000D01*
X159696632Y-91196475D01*
X159903475Y-90989632D01*
X160065990Y-90746411D01*
X160177932Y-90476158D01*
X160235000Y-90189260D01*
X160235000Y-89896740D01*
X160177932Y-89609842D01*
X160065990Y-89339589D01*
X159903475Y-89096368D01*
X159771620Y-88964513D01*
X159844180Y-88942502D01*
X159954494Y-88883537D01*
X160051185Y-88804185D01*
X160130537Y-88707494D01*
X160189502Y-88597180D01*
X160225812Y-88477482D01*
X160238072Y-88353000D01*
X160235000Y-87788750D01*
X160076250Y-87630000D01*
X158877000Y-87630000D01*
X158877000Y-87650000D01*
X158623000Y-87650000D01*
X158623000Y-87630000D01*
X157423750Y-87630000D01*
X157265000Y-87788750D01*
X157261928Y-88353000D01*
X144170000Y-88353000D01*
X144170000Y-85328000D01*
X146466928Y-85328000D01*
X146479188Y-85452482D01*
X146515498Y-85572180D01*
X146574463Y-85682494D01*
X146653815Y-85779185D01*
X146750506Y-85858537D01*
X146860820Y-85917502D01*
X146980518Y-85953812D01*
X147105000Y-85966072D01*
X147669250Y-85963000D01*
X147828000Y-85804250D01*
X147828000Y-84455000D01*
X146628750Y-84455000D01*
X146470000Y-84613750D01*
X146466928Y-85328000D01*
X144170000Y-85328000D01*
X144170000Y-83328000D01*
X146466928Y-83328000D01*
X146470000Y-84042250D01*
X146628750Y-84201000D01*
X147828000Y-84201000D01*
X147828000Y-82851750D01*
X148082000Y-82851750D01*
X148082000Y-84201000D01*
X148102000Y-84201000D01*
X148102000Y-84455000D01*
X148082000Y-84455000D01*
X148082000Y-85804250D01*
X148240750Y-85963000D01*
X148805000Y-85966072D01*
X148929482Y-85953812D01*
X149049180Y-85917502D01*
X149159494Y-85858537D01*
X149256185Y-85779185D01*
X149335537Y-85682494D01*
X149394502Y-85572180D01*
X149405055Y-85537392D01*
X149625987Y-85718706D01*
X149883967Y-85856599D01*
X150163890Y-85941513D01*
X150455000Y-85970185D01*
X150746111Y-85941513D01*
X151026034Y-85856599D01*
X151284014Y-85718706D01*
X151510134Y-85533134D01*
X151695706Y-85307014D01*
X151833599Y-85049033D01*
X151918513Y-84769110D01*
X151940000Y-84550949D01*
X151940000Y-84105050D01*
X151918513Y-83886889D01*
X151833599Y-83606966D01*
X151695706Y-83348986D01*
X151510134Y-83122866D01*
X151284013Y-82937294D01*
X151026033Y-82799401D01*
X150746110Y-82714487D01*
X150455000Y-82685815D01*
X150163889Y-82714487D01*
X149883966Y-82799401D01*
X149625986Y-82937294D01*
X149405055Y-83118608D01*
X149394502Y-83083820D01*
X149335537Y-82973506D01*
X149256185Y-82876815D01*
X149159494Y-82797463D01*
X149049180Y-82738498D01*
X148929482Y-82702188D01*
X148805000Y-82689928D01*
X148240750Y-82693000D01*
X148082000Y-82851750D01*
X147828000Y-82851750D01*
X147669250Y-82693000D01*
X147105000Y-82689928D01*
X146980518Y-82702188D01*
X146860820Y-82738498D01*
X146750506Y-82797463D01*
X146653815Y-82876815D01*
X146574463Y-82973506D01*
X146515498Y-83083820D01*
X146479188Y-83203518D01*
X146466928Y-83328000D01*
X144170000Y-83328000D01*
X144170000Y-78978000D01*
X146466928Y-78978000D01*
X146479188Y-79102482D01*
X146515498Y-79222180D01*
X146574463Y-79332494D01*
X146653815Y-79429185D01*
X146750506Y-79508537D01*
X146860820Y-79567502D01*
X146980518Y-79603812D01*
X147105000Y-79616072D01*
X147669250Y-79613000D01*
X147828000Y-79454250D01*
X147828000Y-78105000D01*
X146628750Y-78105000D01*
X146470000Y-78263750D01*
X146466928Y-78978000D01*
X144170000Y-78978000D01*
X144170000Y-76978000D01*
X146466928Y-76978000D01*
X146470000Y-77692250D01*
X146628750Y-77851000D01*
X147828000Y-77851000D01*
X147828000Y-76501750D01*
X148082000Y-76501750D01*
X148082000Y-77851000D01*
X148102000Y-77851000D01*
X148102000Y-78105000D01*
X148082000Y-78105000D01*
X148082000Y-79454250D01*
X148240750Y-79613000D01*
X148805000Y-79616072D01*
X148929482Y-79603812D01*
X149049180Y-79567502D01*
X149159494Y-79508537D01*
X149256185Y-79429185D01*
X149335537Y-79332494D01*
X149394502Y-79222180D01*
X149405055Y-79187392D01*
X149625987Y-79368706D01*
X149883967Y-79506599D01*
X150163890Y-79591513D01*
X150455000Y-79620185D01*
X150746111Y-79591513D01*
X151026034Y-79506599D01*
X151284014Y-79368706D01*
X151510134Y-79183134D01*
X151695706Y-78957014D01*
X151833599Y-78699033D01*
X151918513Y-78419110D01*
X151940000Y-78200949D01*
X151940000Y-77755050D01*
X151918513Y-77536889D01*
X151833599Y-77256966D01*
X151695706Y-76998986D01*
X151510134Y-76772866D01*
X151284013Y-76587294D01*
X151026033Y-76449401D01*
X150746110Y-76364487D01*
X150455000Y-76335815D01*
X150163889Y-76364487D01*
X149883966Y-76449401D01*
X149625986Y-76587294D01*
X149405055Y-76768608D01*
X149394502Y-76733820D01*
X149335537Y-76623506D01*
X149256185Y-76526815D01*
X149159494Y-76447463D01*
X149049180Y-76388498D01*
X148929482Y-76352188D01*
X148805000Y-76339928D01*
X148240750Y-76343000D01*
X148082000Y-76501750D01*
X147828000Y-76501750D01*
X147669250Y-76343000D01*
X147105000Y-76339928D01*
X146980518Y-76352188D01*
X146860820Y-76388498D01*
X146750506Y-76447463D01*
X146653815Y-76526815D01*
X146574463Y-76623506D01*
X146515498Y-76733820D01*
X146479188Y-76853518D01*
X146466928Y-76978000D01*
X144170000Y-76978000D01*
X144170000Y-75653000D01*
X157261928Y-75653000D01*
X157274188Y-75777482D01*
X157310498Y-75897180D01*
X157369463Y-76007494D01*
X157448815Y-76104185D01*
X157545506Y-76183537D01*
X157655820Y-76242502D01*
X157728380Y-76264513D01*
X157596525Y-76396368D01*
X157434010Y-76639589D01*
X157322068Y-76909842D01*
X157265000Y-77196740D01*
X157265000Y-77489260D01*
X157322068Y-77776158D01*
X157434010Y-78046411D01*
X157596525Y-78289632D01*
X157803368Y-78496475D01*
X157977760Y-78613000D01*
X157803368Y-78729525D01*
X157596525Y-78936368D01*
X157434010Y-79179589D01*
X157322068Y-79449842D01*
X157265000Y-79736740D01*
X157265000Y-80029260D01*
X157322068Y-80316158D01*
X157434010Y-80586411D01*
X157596525Y-80829632D01*
X157803368Y-81036475D01*
X157977760Y-81153000D01*
X157803368Y-81269525D01*
X157596525Y-81476368D01*
X157434010Y-81719589D01*
X157322068Y-81989842D01*
X157265000Y-82276740D01*
X157265000Y-82569260D01*
X157322068Y-82856158D01*
X157434010Y-83126411D01*
X157596525Y-83369632D01*
X157803368Y-83576475D01*
X157977760Y-83693000D01*
X157803368Y-83809525D01*
X157596525Y-84016368D01*
X157434010Y-84259589D01*
X157322068Y-84529842D01*
X157265000Y-84816740D01*
X157265000Y-85109260D01*
X157322068Y-85396158D01*
X157434010Y-85666411D01*
X157596525Y-85909632D01*
X157728380Y-86041487D01*
X157655820Y-86063498D01*
X157545506Y-86122463D01*
X157448815Y-86201815D01*
X157369463Y-86298506D01*
X157310498Y-86408820D01*
X157274188Y-86528518D01*
X157261928Y-86653000D01*
X157265000Y-87217250D01*
X157423750Y-87376000D01*
X158623000Y-87376000D01*
X158623000Y-87356000D01*
X158877000Y-87356000D01*
X158877000Y-87376000D01*
X160076250Y-87376000D01*
X160235000Y-87217250D01*
X160238072Y-86653000D01*
X160225812Y-86528518D01*
X160189502Y-86408820D01*
X160130537Y-86298506D01*
X160051185Y-86201815D01*
X159954494Y-86122463D01*
X159844180Y-86063498D01*
X159771620Y-86041487D01*
X159903475Y-85909632D01*
X160065990Y-85666411D01*
X160177932Y-85396158D01*
X160235000Y-85109260D01*
X160235000Y-84816740D01*
X160177932Y-84529842D01*
X160065990Y-84259589D01*
X159903475Y-84016368D01*
X159696632Y-83809525D01*
X159522240Y-83693000D01*
X159696632Y-83576475D01*
X159903475Y-83369632D01*
X160065990Y-83126411D01*
X160177932Y-82856158D01*
X160235000Y-82569260D01*
X160235000Y-82276740D01*
X160177932Y-81989842D01*
X160065990Y-81719589D01*
X159903475Y-81476368D01*
X159696632Y-81269525D01*
X159522240Y-81153000D01*
X159696632Y-81036475D01*
X159903475Y-80829632D01*
X160065990Y-80586411D01*
X160177932Y-80316158D01*
X160235000Y-80029260D01*
X160235000Y-79736740D01*
X160177932Y-79449842D01*
X160065990Y-79179589D01*
X159903475Y-78936368D01*
X159696632Y-78729525D01*
X159522240Y-78613000D01*
X159696632Y-78496475D01*
X159903475Y-78289632D01*
X160065990Y-78046411D01*
X160177932Y-77776158D01*
X160235000Y-77489260D01*
X160235000Y-77196740D01*
X160177932Y-76909842D01*
X160065990Y-76639589D01*
X159903475Y-76396368D01*
X159771620Y-76264513D01*
X159844180Y-76242502D01*
X159954494Y-76183537D01*
X160051185Y-76104185D01*
X160130537Y-76007494D01*
X160189502Y-75897180D01*
X160225812Y-75777482D01*
X160238072Y-75653000D01*
X175041928Y-75653000D01*
X175054188Y-75777482D01*
X175090498Y-75897180D01*
X175149463Y-76007494D01*
X175228815Y-76104185D01*
X175325506Y-76183537D01*
X175435820Y-76242502D01*
X175508380Y-76264513D01*
X175376525Y-76396368D01*
X175214010Y-76639589D01*
X175102068Y-76909842D01*
X175045000Y-77196740D01*
X175045000Y-77489260D01*
X175102068Y-77776158D01*
X175214010Y-78046411D01*
X175376525Y-78289632D01*
X175583368Y-78496475D01*
X175757760Y-78613000D01*
X175583368Y-78729525D01*
X175376525Y-78936368D01*
X175214010Y-79179589D01*
X175102068Y-79449842D01*
X175045000Y-79736740D01*
X175045000Y-80029260D01*
X175102068Y-80316158D01*
X175214010Y-80586411D01*
X175376525Y-80829632D01*
X175583368Y-81036475D01*
X175757760Y-81153000D01*
X175583368Y-81269525D01*
X175376525Y-81476368D01*
X175214010Y-81719589D01*
X175102068Y-81989842D01*
X175045000Y-82276740D01*
X175045000Y-82569260D01*
X175102068Y-82856158D01*
X175214010Y-83126411D01*
X175376525Y-83369632D01*
X175583368Y-83576475D01*
X175757760Y-83693000D01*
X175583368Y-83809525D01*
X175376525Y-84016368D01*
X175214010Y-84259589D01*
X175102068Y-84529842D01*
X175045000Y-84816740D01*
X175045000Y-85109260D01*
X175102068Y-85396158D01*
X175214010Y-85666411D01*
X175376525Y-85909632D01*
X175508380Y-86041487D01*
X175435820Y-86063498D01*
X175325506Y-86122463D01*
X175228815Y-86201815D01*
X175149463Y-86298506D01*
X175090498Y-86408820D01*
X175054188Y-86528518D01*
X175041928Y-86653000D01*
X175041928Y-88353000D01*
X175054188Y-88477482D01*
X175090498Y-88597180D01*
X175149463Y-88707494D01*
X175228815Y-88804185D01*
X175325506Y-88883537D01*
X175435820Y-88942502D01*
X175508380Y-88964513D01*
X175376525Y-89096368D01*
X175214010Y-89339589D01*
X175102068Y-89609842D01*
X175045000Y-89896740D01*
X175045000Y-90189260D01*
X175102068Y-90476158D01*
X175214010Y-90746411D01*
X175376525Y-90989632D01*
X175583368Y-91196475D01*
X175757760Y-91313000D01*
X175583368Y-91429525D01*
X175376525Y-91636368D01*
X175214010Y-91879589D01*
X175102068Y-92149842D01*
X175045000Y-92436740D01*
X175045000Y-92729260D01*
X175102068Y-93016158D01*
X175214010Y-93286411D01*
X175376525Y-93529632D01*
X175583368Y-93736475D01*
X175757760Y-93853000D01*
X175583368Y-93969525D01*
X175376525Y-94176368D01*
X175214010Y-94419589D01*
X175102068Y-94689842D01*
X175045000Y-94976740D01*
X175045000Y-95269260D01*
X175102068Y-95556158D01*
X175214010Y-95826411D01*
X175376525Y-96069632D01*
X175583368Y-96276475D01*
X175757760Y-96393000D01*
X175583368Y-96509525D01*
X175376525Y-96716368D01*
X175214010Y-96959589D01*
X175102068Y-97229842D01*
X175045000Y-97516740D01*
X175045000Y-97809260D01*
X175102068Y-98096158D01*
X175214010Y-98366411D01*
X175376525Y-98609632D01*
X175508380Y-98741487D01*
X175435820Y-98763498D01*
X175325506Y-98822463D01*
X175228815Y-98901815D01*
X175149463Y-98998506D01*
X175090498Y-99108820D01*
X175054188Y-99228518D01*
X175041928Y-99353000D01*
X175045000Y-99917250D01*
X175203750Y-100076000D01*
X176403000Y-100076000D01*
X176403000Y-100056000D01*
X176657000Y-100056000D01*
X176657000Y-100076000D01*
X177856250Y-100076000D01*
X178015000Y-99917250D01*
X178018072Y-99353000D01*
X178005812Y-99228518D01*
X177969502Y-99108820D01*
X177910537Y-98998506D01*
X177831185Y-98901815D01*
X177734494Y-98822463D01*
X177624180Y-98763498D01*
X177551620Y-98741487D01*
X177683475Y-98609632D01*
X177845990Y-98366411D01*
X177957932Y-98096158D01*
X178015000Y-97809260D01*
X178015000Y-97516740D01*
X177957932Y-97229842D01*
X177845990Y-96959589D01*
X177683475Y-96716368D01*
X177476632Y-96509525D01*
X177302240Y-96393000D01*
X177476632Y-96276475D01*
X177683475Y-96069632D01*
X177845990Y-95826411D01*
X177957932Y-95556158D01*
X178015000Y-95269260D01*
X178015000Y-94976740D01*
X177957932Y-94689842D01*
X177845990Y-94419589D01*
X177683475Y-94176368D01*
X177476632Y-93969525D01*
X177302240Y-93853000D01*
X177476632Y-93736475D01*
X177683475Y-93529632D01*
X177845990Y-93286411D01*
X177957932Y-93016158D01*
X178015000Y-92729260D01*
X178015000Y-92436740D01*
X177957932Y-92149842D01*
X177845990Y-91879589D01*
X177683475Y-91636368D01*
X177476632Y-91429525D01*
X177302240Y-91313000D01*
X177476632Y-91196475D01*
X177683475Y-90989632D01*
X177845990Y-90746411D01*
X177957932Y-90476158D01*
X178015000Y-90189260D01*
X178015000Y-89896740D01*
X177957932Y-89609842D01*
X177845990Y-89339589D01*
X177683475Y-89096368D01*
X177551620Y-88964513D01*
X177624180Y-88942502D01*
X177734494Y-88883537D01*
X177831185Y-88804185D01*
X177910537Y-88707494D01*
X177969502Y-88597180D01*
X178005812Y-88477482D01*
X178018072Y-88353000D01*
X178018072Y-86653000D01*
X178005812Y-86528518D01*
X177969502Y-86408820D01*
X177910537Y-86298506D01*
X177831185Y-86201815D01*
X177734494Y-86122463D01*
X177624180Y-86063498D01*
X177551620Y-86041487D01*
X177683475Y-85909632D01*
X177845990Y-85666411D01*
X177957932Y-85396158D01*
X178015000Y-85109260D01*
X178015000Y-84816740D01*
X177957932Y-84529842D01*
X177845990Y-84259589D01*
X177683475Y-84016368D01*
X177476632Y-83809525D01*
X177302240Y-83693000D01*
X177476632Y-83576475D01*
X177683475Y-83369632D01*
X177845990Y-83126411D01*
X177957932Y-82856158D01*
X178015000Y-82569260D01*
X178015000Y-82276740D01*
X177957932Y-81989842D01*
X177845990Y-81719589D01*
X177683475Y-81476368D01*
X177476632Y-81269525D01*
X177302240Y-81153000D01*
X177476632Y-81036475D01*
X177683475Y-80829632D01*
X177845990Y-80586411D01*
X177957932Y-80316158D01*
X178015000Y-80029260D01*
X178015000Y-79736740D01*
X177957932Y-79449842D01*
X177845990Y-79179589D01*
X177683475Y-78936368D01*
X177476632Y-78729525D01*
X177302240Y-78613000D01*
X177476632Y-78496475D01*
X177683475Y-78289632D01*
X177845990Y-78046411D01*
X177957932Y-77776158D01*
X178015000Y-77489260D01*
X178015000Y-77196740D01*
X177957932Y-76909842D01*
X177845990Y-76639589D01*
X177683475Y-76396368D01*
X177551620Y-76264513D01*
X177624180Y-76242502D01*
X177734494Y-76183537D01*
X177831185Y-76104185D01*
X177910537Y-76007494D01*
X177969502Y-75897180D01*
X178005812Y-75777482D01*
X178018072Y-75653000D01*
X178015000Y-75088750D01*
X177856250Y-74930000D01*
X176657000Y-74930000D01*
X176657000Y-74950000D01*
X176403000Y-74950000D01*
X176403000Y-74930000D01*
X175203750Y-74930000D01*
X175045000Y-75088750D01*
X175041928Y-75653000D01*
X160238072Y-75653000D01*
X160235000Y-75088750D01*
X160076250Y-74930000D01*
X158877000Y-74930000D01*
X158877000Y-74950000D01*
X158623000Y-74950000D01*
X158623000Y-74930000D01*
X157423750Y-74930000D01*
X157265000Y-75088750D01*
X157261928Y-75653000D01*
X144170000Y-75653000D01*
X144170000Y-72628000D01*
X146466928Y-72628000D01*
X146479188Y-72752482D01*
X146515498Y-72872180D01*
X146574463Y-72982494D01*
X146653815Y-73079185D01*
X146750506Y-73158537D01*
X146860820Y-73217502D01*
X146980518Y-73253812D01*
X147105000Y-73266072D01*
X147669250Y-73263000D01*
X147828000Y-73104250D01*
X147828000Y-71755000D01*
X146628750Y-71755000D01*
X146470000Y-71913750D01*
X146466928Y-72628000D01*
X144170000Y-72628000D01*
X144170000Y-70628000D01*
X146466928Y-70628000D01*
X146470000Y-71342250D01*
X146628750Y-71501000D01*
X147828000Y-71501000D01*
X147828000Y-70151750D01*
X148082000Y-70151750D01*
X148082000Y-71501000D01*
X148102000Y-71501000D01*
X148102000Y-71755000D01*
X148082000Y-71755000D01*
X148082000Y-73104250D01*
X148240750Y-73263000D01*
X148805000Y-73266072D01*
X148929482Y-73253812D01*
X149049180Y-73217502D01*
X149159494Y-73158537D01*
X149256185Y-73079185D01*
X149335537Y-72982494D01*
X149394502Y-72872180D01*
X149405055Y-72837392D01*
X149625987Y-73018706D01*
X149883967Y-73156599D01*
X150163890Y-73241513D01*
X150455000Y-73270185D01*
X150746111Y-73241513D01*
X151026034Y-73156599D01*
X151284014Y-73018706D01*
X151510134Y-72833134D01*
X151695706Y-72607014D01*
X151833599Y-72349033D01*
X151918513Y-72069110D01*
X151940000Y-71850949D01*
X151940000Y-71405050D01*
X151918513Y-71186889D01*
X151833599Y-70906966D01*
X151695706Y-70648986D01*
X151510134Y-70422866D01*
X151284013Y-70237294D01*
X151026033Y-70099401D01*
X150746110Y-70014487D01*
X150455000Y-69985815D01*
X150163889Y-70014487D01*
X149883966Y-70099401D01*
X149625986Y-70237294D01*
X149405055Y-70418608D01*
X149394502Y-70383820D01*
X149335537Y-70273506D01*
X149256185Y-70176815D01*
X149159494Y-70097463D01*
X149049180Y-70038498D01*
X148929482Y-70002188D01*
X148805000Y-69989928D01*
X148240750Y-69993000D01*
X148082000Y-70151750D01*
X147828000Y-70151750D01*
X147669250Y-69993000D01*
X147105000Y-69989928D01*
X146980518Y-70002188D01*
X146860820Y-70038498D01*
X146750506Y-70097463D01*
X146653815Y-70176815D01*
X146574463Y-70273506D01*
X146515498Y-70383820D01*
X146479188Y-70503518D01*
X146466928Y-70628000D01*
X144170000Y-70628000D01*
X144170000Y-70400326D01*
X144295743Y-70361402D01*
X144350875Y-70338227D01*
X144406349Y-70315814D01*
X144414486Y-70311487D01*
X144676122Y-70170021D01*
X144725689Y-70136588D01*
X144775768Y-70103817D01*
X144782909Y-70097993D01*
X145012084Y-69908403D01*
X145054206Y-69865985D01*
X145096976Y-69824103D01*
X145102850Y-69817002D01*
X145290836Y-69586508D01*
X145323951Y-69536666D01*
X145357735Y-69487326D01*
X145362118Y-69479219D01*
X145501754Y-69216601D01*
X145524548Y-69161299D01*
X145548114Y-69106316D01*
X145550839Y-69097513D01*
X145584507Y-68986000D01*
X157456453Y-68986000D01*
X157434010Y-69019589D01*
%TA.AperFunction,Conductor*%
D15*
G36*
X157434010Y-69019589D02*
G01*
X157322068Y-69289842D01*
X157265000Y-69576740D01*
X157265000Y-69869260D01*
X157322068Y-70156158D01*
X157434010Y-70426411D01*
X157596525Y-70669632D01*
X157803368Y-70876475D01*
X157977760Y-70993000D01*
X157803368Y-71109525D01*
X157596525Y-71316368D01*
X157434010Y-71559589D01*
X157322068Y-71829842D01*
X157265000Y-72116740D01*
X157265000Y-72409260D01*
X157322068Y-72696158D01*
X157434010Y-72966411D01*
X157596525Y-73209632D01*
X157728380Y-73341487D01*
X157655820Y-73363498D01*
X157545506Y-73422463D01*
X157448815Y-73501815D01*
X157369463Y-73598506D01*
X157310498Y-73708820D01*
X157274188Y-73828518D01*
X157261928Y-73953000D01*
X157265000Y-74517250D01*
X157423750Y-74676000D01*
X158623000Y-74676000D01*
X158623000Y-74656000D01*
X158877000Y-74656000D01*
X158877000Y-74676000D01*
X160076250Y-74676000D01*
X160235000Y-74517250D01*
X160238072Y-73953000D01*
X160225812Y-73828518D01*
X160189502Y-73708820D01*
X160130537Y-73598506D01*
X160051185Y-73501815D01*
X159954494Y-73422463D01*
X159844180Y-73363498D01*
X159771620Y-73341487D01*
X159903475Y-73209632D01*
X160065990Y-72966411D01*
X160157042Y-72746589D01*
X163830000Y-72746589D01*
X163830000Y-73019411D01*
X163883225Y-73286989D01*
X163987629Y-73539043D01*
X164139201Y-73765886D01*
X164332114Y-73958799D01*
X164558957Y-74110371D01*
X164811011Y-74214775D01*
X165078589Y-74268000D01*
X165351411Y-74268000D01*
X165618989Y-74214775D01*
X165871043Y-74110371D01*
X166097886Y-73958799D01*
X166290799Y-73765886D01*
X166442371Y-73539043D01*
X166546775Y-73286989D01*
X166600000Y-73019411D01*
X166600000Y-72746589D01*
X168680000Y-72746589D01*
X168680000Y-73019411D01*
X168733225Y-73286989D01*
X168837629Y-73539043D01*
X168989201Y-73765886D01*
X169182114Y-73958799D01*
X169408957Y-74110371D01*
X169661011Y-74214775D01*
X169928589Y-74268000D01*
X170201411Y-74268000D01*
X170468989Y-74214775D01*
X170721043Y-74110371D01*
X170947886Y-73958799D01*
X171140799Y-73765886D01*
X171292371Y-73539043D01*
X171396775Y-73286989D01*
X171450000Y-73019411D01*
X171450000Y-72746589D01*
X171396775Y-72479011D01*
X171292371Y-72226957D01*
X171140799Y-72000114D01*
X170947886Y-71807201D01*
X170721043Y-71655629D01*
X170468989Y-71551225D01*
X170201411Y-71498000D01*
X169928589Y-71498000D01*
X169661011Y-71551225D01*
X169408957Y-71655629D01*
X169182114Y-71807201D01*
X168989201Y-72000114D01*
X168837629Y-72226957D01*
X168733225Y-72479011D01*
X168680000Y-72746589D01*
X166600000Y-72746589D01*
X166546775Y-72479011D01*
X166442371Y-72226957D01*
X166290799Y-72000114D01*
X166097886Y-71807201D01*
X165871043Y-71655629D01*
X165618989Y-71551225D01*
X165351411Y-71498000D01*
X165078589Y-71498000D01*
X164811011Y-71551225D01*
X164558957Y-71655629D01*
X164332114Y-71807201D01*
X164139201Y-72000114D01*
X163987629Y-72226957D01*
X163883225Y-72479011D01*
X163830000Y-72746589D01*
X160157042Y-72746589D01*
X160177932Y-72696158D01*
X160235000Y-72409260D01*
X160235000Y-72116740D01*
X160177932Y-71829842D01*
X160065990Y-71559589D01*
X159903475Y-71316368D01*
X159696632Y-71109525D01*
X159522240Y-70993000D01*
X159696632Y-70876475D01*
X159903475Y-70669632D01*
X160065990Y-70426411D01*
X160177932Y-70156158D01*
X160235000Y-69869260D01*
X160235000Y-69576740D01*
X160177932Y-69289842D01*
X160065990Y-69019589D01*
X160043547Y-68986000D01*
X163648183Y-68986000D01*
X163554701Y-69125905D01*
X163438989Y-69405257D01*
X163380000Y-69701816D01*
X163380000Y-70004184D01*
X163438989Y-70300743D01*
X163554701Y-70580095D01*
X163722688Y-70831505D01*
X163936495Y-71045312D01*
X164187905Y-71213299D01*
X164467257Y-71329011D01*
X164763816Y-71388000D01*
X165066184Y-71388000D01*
X165362743Y-71329011D01*
X165642095Y-71213299D01*
X165893505Y-71045312D01*
X166107312Y-70831505D01*
X166275299Y-70580095D01*
X166391011Y-70300743D01*
X166450000Y-70004184D01*
X166450000Y-69701816D01*
X166391011Y-69405257D01*
X166275299Y-69125905D01*
X166181817Y-68986000D01*
X169098183Y-68986000D01*
X169004701Y-69125905D01*
X168888989Y-69405257D01*
X168830000Y-69701816D01*
X168830000Y-70004184D01*
X168888989Y-70300743D01*
X169004701Y-70580095D01*
X169172688Y-70831505D01*
X169386495Y-71045312D01*
X169637905Y-71213299D01*
X169917257Y-71329011D01*
X170213816Y-71388000D01*
X170516184Y-71388000D01*
X170812743Y-71329011D01*
X171092095Y-71213299D01*
X171343505Y-71045312D01*
X171557312Y-70831505D01*
X171725299Y-70580095D01*
X171841011Y-70300743D01*
X171900000Y-70004184D01*
X171900000Y-69701816D01*
X171841011Y-69405257D01*
X171725299Y-69125905D01*
X171631817Y-68986000D01*
X175236453Y-68986000D01*
X175214010Y-69019589D01*
X175102068Y-69289842D01*
X175045000Y-69576740D01*
X175045000Y-69869260D01*
X175102068Y-70156158D01*
X175214010Y-70426411D01*
X175376525Y-70669632D01*
X175583368Y-70876475D01*
X175757760Y-70993000D01*
X175583368Y-71109525D01*
X175376525Y-71316368D01*
X175214010Y-71559589D01*
X175102068Y-71829842D01*
X175045000Y-72116740D01*
X175045000Y-72409260D01*
X175102068Y-72696158D01*
X175214010Y-72966411D01*
X175376525Y-73209632D01*
X175508380Y-73341487D01*
X175435820Y-73363498D01*
X175325506Y-73422463D01*
X175228815Y-73501815D01*
X175149463Y-73598506D01*
X175090498Y-73708820D01*
X175054188Y-73828518D01*
X175041928Y-73953000D01*
X175045000Y-74517250D01*
X175203750Y-74676000D01*
X176403000Y-74676000D01*
X176403000Y-74656000D01*
X176657000Y-74656000D01*
X176657000Y-74676000D01*
X177856250Y-74676000D01*
X178015000Y-74517250D01*
X178018072Y-73953000D01*
X178005812Y-73828518D01*
X177969502Y-73708820D01*
X177910537Y-73598506D01*
X177831185Y-73501815D01*
X177734494Y-73422463D01*
X177624180Y-73363498D01*
X177551620Y-73341487D01*
X177683475Y-73209632D01*
X177845990Y-72966411D01*
X177957932Y-72696158D01*
X178015000Y-72409260D01*
X178015000Y-72116740D01*
X177957932Y-71829842D01*
X177845990Y-71559589D01*
X177683475Y-71316368D01*
X177476632Y-71109525D01*
X177302240Y-70993000D01*
X177476632Y-70876475D01*
X177683475Y-70669632D01*
X177845990Y-70426411D01*
X177957932Y-70156158D01*
X178015000Y-69869260D01*
X178015000Y-69576740D01*
X177957932Y-69289842D01*
X177845990Y-69019589D01*
X177823547Y-68986000D01*
X178646674Y-68986000D01*
X178685598Y-69111743D01*
X178708773Y-69166875D01*
X178731186Y-69222349D01*
X178735513Y-69230486D01*
X178876979Y-69492122D01*
X178910412Y-69541689D01*
X178943183Y-69591768D01*
X178949007Y-69598909D01*
X179138597Y-69828084D01*
X179181015Y-69870206D01*
X179222897Y-69912976D01*
X179229998Y-69918850D01*
X179460492Y-70106836D01*
X179510334Y-70139951D01*
X179559674Y-70173735D01*
X179567781Y-70178118D01*
X179830399Y-70317754D01*
X179885701Y-70340548D01*
X179940684Y-70364114D01*
X179949487Y-70366839D01*
X180061001Y-70400507D01*
X180061000Y-118448674D01*
X179935257Y-118487598D01*
X179880139Y-118510768D01*
X179824650Y-118533186D01*
X179816514Y-118537513D01*
X179554878Y-118678979D01*
X179505311Y-118712412D01*
X179455232Y-118745183D01*
X179448091Y-118751008D01*
X179218915Y-118940597D01*
X179176774Y-118983034D01*
X179134024Y-119024897D01*
X179128150Y-119031998D01*
X178940164Y-119262492D01*
X178907049Y-119312334D01*
X178873265Y-119361674D01*
X178868882Y-119369781D01*
X178729246Y-119632399D01*
X178706458Y-119687687D01*
X178682886Y-119742683D01*
X178680162Y-119751487D01*
X178646494Y-119863000D01*
X145584326Y-119863000D01*
X145545402Y-119737257D01*
X145522232Y-119682139D01*
X145499814Y-119626650D01*
X145495487Y-119618514D01*
X145354021Y-119356878D01*
X145320588Y-119307311D01*
X145287817Y-119257232D01*
X145281992Y-119250091D01*
X145092403Y-119020915D01*
X145049966Y-118978774D01*
X145008103Y-118936024D01*
X145001002Y-118930150D01*
X144770508Y-118742164D01*
X144720666Y-118709049D01*
X144671326Y-118675265D01*
X144663219Y-118670882D01*
X144400601Y-118531246D01*
X144345313Y-118508458D01*
X144290317Y-118484886D01*
X144281513Y-118482162D01*
X144281515Y-118482162D01*
X144281507Y-118482160D01*
X144170000Y-118448494D01*
X144170000Y-117078000D01*
X146466928Y-117078000D01*
X146479188Y-117202482D01*
X146515498Y-117322180D01*
X146574463Y-117432494D01*
X146653815Y-117529185D01*
X146750506Y-117608537D01*
X146860820Y-117667502D01*
X146980518Y-117703812D01*
X147105000Y-117716072D01*
X147669250Y-117713000D01*
X147828000Y-117554250D01*
X147828000Y-116205000D01*
X146628750Y-116205000D01*
X146470000Y-116363750D01*
X146466928Y-117078000D01*
X144170000Y-117078000D01*
X144170000Y-115078000D01*
X146466928Y-115078000D01*
X146470000Y-115792250D01*
X146628750Y-115951000D01*
X147828000Y-115951000D01*
X147828000Y-114601750D01*
X148082000Y-114601750D01*
X148082000Y-115951000D01*
X148102000Y-115951000D01*
X148102000Y-116205000D01*
X148082000Y-116205000D01*
X148082000Y-117554250D01*
X148240750Y-117713000D01*
X148805000Y-117716072D01*
X148929482Y-117703812D01*
X149049180Y-117667502D01*
X149159494Y-117608537D01*
X149256185Y-117529185D01*
X149335537Y-117432494D01*
X149394502Y-117322180D01*
X149405055Y-117287392D01*
X149625987Y-117468706D01*
X149883967Y-117606599D01*
X150163890Y-117691513D01*
X150455000Y-117720185D01*
X150746111Y-117691513D01*
X151026034Y-117606599D01*
X151284014Y-117468706D01*
X151510134Y-117283134D01*
X151695706Y-117057014D01*
X151833599Y-116799033D01*
X151918513Y-116519110D01*
X151940000Y-116300949D01*
X151940000Y-115855050D01*
X151918513Y-115636889D01*
X151833599Y-115356966D01*
X151695706Y-115098986D01*
X151510134Y-114872866D01*
X151284013Y-114687294D01*
X151026033Y-114549401D01*
X150746110Y-114464487D01*
X150455000Y-114435815D01*
X150163889Y-114464487D01*
X149883966Y-114549401D01*
X149625986Y-114687294D01*
X149405055Y-114868608D01*
X149394502Y-114833820D01*
X149335537Y-114723506D01*
X149256185Y-114626815D01*
X149159494Y-114547463D01*
X149049180Y-114488498D01*
X148929482Y-114452188D01*
X148805000Y-114439928D01*
X148240750Y-114443000D01*
X148082000Y-114601750D01*
X147828000Y-114601750D01*
X147669250Y-114443000D01*
X147105000Y-114439928D01*
X146980518Y-114452188D01*
X146860820Y-114488498D01*
X146750506Y-114547463D01*
X146653815Y-114626815D01*
X146574463Y-114723506D01*
X146515498Y-114833820D01*
X146479188Y-114953518D01*
X146466928Y-115078000D01*
X144170000Y-115078000D01*
X144170000Y-113753000D01*
X157261928Y-113753000D01*
X157274188Y-113877482D01*
X157310498Y-113997180D01*
X157369463Y-114107494D01*
X157448815Y-114204185D01*
X157545506Y-114283537D01*
X157655820Y-114342502D01*
X157728380Y-114364513D01*
X157596525Y-114496368D01*
X157434010Y-114739589D01*
X157322068Y-115009842D01*
X157265000Y-115296740D01*
X157265000Y-115589260D01*
X157322068Y-115876158D01*
X157434010Y-116146411D01*
X157596525Y-116389632D01*
X157803368Y-116596475D01*
X157977760Y-116713000D01*
X157803368Y-116829525D01*
X157596525Y-117036368D01*
X157434010Y-117279589D01*
X157322068Y-117549842D01*
X157265000Y-117836740D01*
X157265000Y-118129260D01*
X157322068Y-118416158D01*
X157434010Y-118686411D01*
X157596525Y-118929632D01*
X157803368Y-119136475D01*
X158046589Y-119298990D01*
X158316842Y-119410932D01*
X158603740Y-119468000D01*
X158896260Y-119468000D01*
X159183158Y-119410932D01*
X159453411Y-119298990D01*
X159696632Y-119136475D01*
X159903475Y-118929632D01*
X160065990Y-118686411D01*
X160177932Y-118416158D01*
X160235000Y-118129260D01*
X160235000Y-117836740D01*
X160189250Y-117606740D01*
X163615000Y-117606740D01*
X163615000Y-117899260D01*
X163672068Y-118186158D01*
X163784010Y-118456411D01*
X163946525Y-118699632D01*
X164153368Y-118906475D01*
X164396589Y-119068990D01*
X164666842Y-119180932D01*
X164953740Y-119238000D01*
X165246260Y-119238000D01*
X165533158Y-119180932D01*
X165803411Y-119068990D01*
X166046632Y-118906475D01*
X166178487Y-118774620D01*
X166200498Y-118847180D01*
X166259463Y-118957494D01*
X166338815Y-119054185D01*
X166435506Y-119133537D01*
X166545820Y-119192502D01*
X166665518Y-119228812D01*
X166790000Y-119241072D01*
X167354250Y-119238000D01*
X167513000Y-119079250D01*
X167513000Y-117880000D01*
X167493000Y-117880000D01*
X167493000Y-117626000D01*
X167513000Y-117626000D01*
X167513000Y-116426750D01*
X167767000Y-116426750D01*
X167767000Y-117626000D01*
X167787000Y-117626000D01*
X167787000Y-117880000D01*
X167767000Y-117880000D01*
X167767000Y-119079250D01*
X167925750Y-119238000D01*
X168490000Y-119241072D01*
X168614482Y-119228812D01*
X168734180Y-119192502D01*
X168844494Y-119133537D01*
X168941185Y-119054185D01*
X169020537Y-118957494D01*
X169079502Y-118847180D01*
X169101513Y-118774620D01*
X169233368Y-118906475D01*
X169476589Y-119068990D01*
X169746842Y-119180932D01*
X170033740Y-119238000D01*
X170326260Y-119238000D01*
X170613158Y-119180932D01*
X170883411Y-119068990D01*
X171126632Y-118906475D01*
X171333475Y-118699632D01*
X171495990Y-118456411D01*
X171607932Y-118186158D01*
X171665000Y-117899260D01*
X171665000Y-117606740D01*
X171607932Y-117319842D01*
X171495990Y-117049589D01*
X171333475Y-116806368D01*
X171126632Y-116599525D01*
X170883411Y-116437010D01*
X170613158Y-116325068D01*
X170326260Y-116268000D01*
X170033740Y-116268000D01*
X169746842Y-116325068D01*
X169476589Y-116437010D01*
X169233368Y-116599525D01*
X169101513Y-116731380D01*
X169079502Y-116658820D01*
X169020537Y-116548506D01*
X168941185Y-116451815D01*
X168844494Y-116372463D01*
X168734180Y-116313498D01*
X168614482Y-116277188D01*
X168490000Y-116264928D01*
X167925750Y-116268000D01*
X167767000Y-116426750D01*
X167513000Y-116426750D01*
X167354250Y-116268000D01*
X166790000Y-116264928D01*
X166665518Y-116277188D01*
X166545820Y-116313498D01*
X166435506Y-116372463D01*
X166338815Y-116451815D01*
X166259463Y-116548506D01*
X166200498Y-116658820D01*
X166178487Y-116731380D01*
X166046632Y-116599525D01*
X165803411Y-116437010D01*
X165533158Y-116325068D01*
X165246260Y-116268000D01*
X164953740Y-116268000D01*
X164666842Y-116325068D01*
X164396589Y-116437010D01*
X164153368Y-116599525D01*
X163946525Y-116806368D01*
X163784010Y-117049589D01*
X163672068Y-117319842D01*
X163615000Y-117606740D01*
X160189250Y-117606740D01*
X160177932Y-117549842D01*
X160065990Y-117279589D01*
X159903475Y-117036368D01*
X159696632Y-116829525D01*
X159522240Y-116713000D01*
X159696632Y-116596475D01*
X159903475Y-116389632D01*
X160065990Y-116146411D01*
X160177932Y-115876158D01*
X160235000Y-115589260D01*
X160235000Y-115296740D01*
X160177932Y-115009842D01*
X160065990Y-114739589D01*
X159903475Y-114496368D01*
X159771620Y-114364513D01*
X159844180Y-114342502D01*
X159954494Y-114283537D01*
X160051185Y-114204185D01*
X160130537Y-114107494D01*
X160189502Y-113997180D01*
X160225812Y-113877482D01*
X160238072Y-113753000D01*
X175041928Y-113753000D01*
X175054188Y-113877482D01*
X175090498Y-113997180D01*
X175149463Y-114107494D01*
X175228815Y-114204185D01*
X175325506Y-114283537D01*
X175435820Y-114342502D01*
X175508380Y-114364513D01*
X175376525Y-114496368D01*
X175214010Y-114739589D01*
X175102068Y-115009842D01*
X175045000Y-115296740D01*
X175045000Y-115589260D01*
X175102068Y-115876158D01*
X175214010Y-116146411D01*
X175376525Y-116389632D01*
X175583368Y-116596475D01*
X175757760Y-116713000D01*
X175583368Y-116829525D01*
X175376525Y-117036368D01*
X175214010Y-117279589D01*
X175102068Y-117549842D01*
X175045000Y-117836740D01*
X175045000Y-118129260D01*
X175102068Y-118416158D01*
X175214010Y-118686411D01*
X175376525Y-118929632D01*
X175583368Y-119136475D01*
X175826589Y-119298990D01*
X176096842Y-119410932D01*
X176383740Y-119468000D01*
X176676260Y-119468000D01*
X176963158Y-119410932D01*
X177233411Y-119298990D01*
X177476632Y-119136475D01*
X177683475Y-118929632D01*
X177845990Y-118686411D01*
X177957932Y-118416158D01*
X178015000Y-118129260D01*
X178015000Y-117836740D01*
X177957932Y-117549842D01*
X177845990Y-117279589D01*
X177683475Y-117036368D01*
X177476632Y-116829525D01*
X177302240Y-116713000D01*
X177476632Y-116596475D01*
X177683475Y-116389632D01*
X177845990Y-116146411D01*
X177957932Y-115876158D01*
X178015000Y-115589260D01*
X178015000Y-115296740D01*
X177957932Y-115009842D01*
X177845990Y-114739589D01*
X177683475Y-114496368D01*
X177551620Y-114364513D01*
X177624180Y-114342502D01*
X177734494Y-114283537D01*
X177831185Y-114204185D01*
X177910537Y-114107494D01*
X177969502Y-113997180D01*
X178005812Y-113877482D01*
X178018072Y-113753000D01*
X178015000Y-113188750D01*
X177856250Y-113030000D01*
X176657000Y-113030000D01*
X176657000Y-113050000D01*
X176403000Y-113050000D01*
X176403000Y-113030000D01*
X175203750Y-113030000D01*
X175045000Y-113188750D01*
X175041928Y-113753000D01*
X160238072Y-113753000D01*
X160235000Y-113188750D01*
X160076250Y-113030000D01*
X158877000Y-113030000D01*
X158877000Y-113050000D01*
X158623000Y-113050000D01*
X158623000Y-113030000D01*
X157423750Y-113030000D01*
X157265000Y-113188750D01*
X157261928Y-113753000D01*
X144170000Y-113753000D01*
X144170000Y-110728000D01*
X146466928Y-110728000D01*
X146479188Y-110852482D01*
X146515498Y-110972180D01*
X146574463Y-111082494D01*
X146653815Y-111179185D01*
X146750506Y-111258537D01*
X146860820Y-111317502D01*
X146980518Y-111353812D01*
X147105000Y-111366072D01*
X147669250Y-111363000D01*
X147828000Y-111204250D01*
X147828000Y-109855000D01*
X146628750Y-109855000D01*
X146470000Y-110013750D01*
X146466928Y-110728000D01*
X144170000Y-110728000D01*
X144170000Y-108728000D01*
X146466928Y-108728000D01*
X146470000Y-109442250D01*
X146628750Y-109601000D01*
X147828000Y-109601000D01*
X147828000Y-108251750D01*
X148082000Y-108251750D01*
X148082000Y-109601000D01*
X148102000Y-109601000D01*
X148102000Y-109855000D01*
X148082000Y-109855000D01*
X148082000Y-111204250D01*
X148240750Y-111363000D01*
X148805000Y-111366072D01*
X148929482Y-111353812D01*
X149049180Y-111317502D01*
X149159494Y-111258537D01*
X149256185Y-111179185D01*
X149335537Y-111082494D01*
X149394502Y-110972180D01*
X149405055Y-110937392D01*
X149625987Y-111118706D01*
X149883967Y-111256599D01*
X150163890Y-111341513D01*
X150455000Y-111370185D01*
X150746111Y-111341513D01*
X151026034Y-111256599D01*
X151284014Y-111118706D01*
X151510134Y-110933134D01*
X151695706Y-110707014D01*
X151833599Y-110449033D01*
X151918513Y-110169110D01*
X151940000Y-109950949D01*
X151940000Y-109505050D01*
X151918513Y-109286889D01*
X151833599Y-109006966D01*
X151695706Y-108748986D01*
X151510134Y-108522866D01*
X151284013Y-108337294D01*
X151026033Y-108199401D01*
X150746110Y-108114487D01*
X150455000Y-108085815D01*
X150163889Y-108114487D01*
X149883966Y-108199401D01*
X149625986Y-108337294D01*
X149405055Y-108518608D01*
X149394502Y-108483820D01*
X149335537Y-108373506D01*
X149256185Y-108276815D01*
X149159494Y-108197463D01*
X149049180Y-108138498D01*
X148929482Y-108102188D01*
X148805000Y-108089928D01*
X148240750Y-108093000D01*
X148082000Y-108251750D01*
X147828000Y-108251750D01*
X147669250Y-108093000D01*
X147105000Y-108089928D01*
X146980518Y-108102188D01*
X146860820Y-108138498D01*
X146750506Y-108197463D01*
X146653815Y-108276815D01*
X146574463Y-108373506D01*
X146515498Y-108483820D01*
X146479188Y-108603518D01*
X146466928Y-108728000D01*
X144170000Y-108728000D01*
X144170000Y-104378000D01*
X146466928Y-104378000D01*
X146479188Y-104502482D01*
X146515498Y-104622180D01*
X146574463Y-104732494D01*
X146653815Y-104829185D01*
X146750506Y-104908537D01*
X146860820Y-104967502D01*
X146980518Y-105003812D01*
X147105000Y-105016072D01*
X147669250Y-105013000D01*
X147828000Y-104854250D01*
X147828000Y-103505000D01*
X146628750Y-103505000D01*
X146470000Y-103663750D01*
X146466928Y-104378000D01*
X144170000Y-104378000D01*
X144170000Y-102378000D01*
X146466928Y-102378000D01*
X146470000Y-103092250D01*
X146628750Y-103251000D01*
X147828000Y-103251000D01*
X147828000Y-101901750D01*
X148082000Y-101901750D01*
X148082000Y-103251000D01*
X148102000Y-103251000D01*
X148102000Y-103505000D01*
X148082000Y-103505000D01*
X148082000Y-104854250D01*
X148240750Y-105013000D01*
X148805000Y-105016072D01*
X148929482Y-105003812D01*
X149049180Y-104967502D01*
X149159494Y-104908537D01*
X149256185Y-104829185D01*
X149335537Y-104732494D01*
X149394502Y-104622180D01*
X149405055Y-104587392D01*
X149625987Y-104768706D01*
X149883967Y-104906599D01*
X150163890Y-104991513D01*
X150455000Y-105020185D01*
X150746111Y-104991513D01*
X151026034Y-104906599D01*
X151284014Y-104768706D01*
X151510134Y-104583134D01*
X151695706Y-104357014D01*
X151833599Y-104099033D01*
X151918513Y-103819110D01*
X151940000Y-103600949D01*
X151940000Y-103155050D01*
X151918513Y-102936889D01*
X151833599Y-102656966D01*
X151695706Y-102398986D01*
X151510134Y-102172866D01*
X151284013Y-101987294D01*
X151026033Y-101849401D01*
X150746110Y-101764487D01*
X150455000Y-101735815D01*
X150163889Y-101764487D01*
X149883966Y-101849401D01*
X149625986Y-101987294D01*
X149405055Y-102168608D01*
X149394502Y-102133820D01*
X149335537Y-102023506D01*
X149256185Y-101926815D01*
X149159494Y-101847463D01*
X149049180Y-101788498D01*
X148929482Y-101752188D01*
X148805000Y-101739928D01*
X148240750Y-101743000D01*
X148082000Y-101901750D01*
X147828000Y-101901750D01*
X147669250Y-101743000D01*
X147105000Y-101739928D01*
X146980518Y-101752188D01*
X146860820Y-101788498D01*
X146750506Y-101847463D01*
X146653815Y-101926815D01*
X146574463Y-102023506D01*
X146515498Y-102133820D01*
X146479188Y-102253518D01*
X146466928Y-102378000D01*
X144170000Y-102378000D01*
X144170000Y-101053000D01*
X157261928Y-101053000D01*
X157274188Y-101177482D01*
X157310498Y-101297180D01*
X157369463Y-101407494D01*
X157448815Y-101504185D01*
X157545506Y-101583537D01*
X157655820Y-101642502D01*
X157728380Y-101664513D01*
X157596525Y-101796368D01*
X157434010Y-102039589D01*
X157322068Y-102309842D01*
X157265000Y-102596740D01*
X157265000Y-102889260D01*
X157322068Y-103176158D01*
X157434010Y-103446411D01*
X157596525Y-103689632D01*
X157803368Y-103896475D01*
X157977760Y-104013000D01*
X157803368Y-104129525D01*
X157596525Y-104336368D01*
X157434010Y-104579589D01*
X157322068Y-104849842D01*
X157265000Y-105136740D01*
X157265000Y-105429260D01*
X157322068Y-105716158D01*
X157434010Y-105986411D01*
X157596525Y-106229632D01*
X157803368Y-106436475D01*
X157977760Y-106553000D01*
X157803368Y-106669525D01*
X157596525Y-106876368D01*
X157434010Y-107119589D01*
X157322068Y-107389842D01*
X157265000Y-107676740D01*
X157265000Y-107969260D01*
X157322068Y-108256158D01*
X157434010Y-108526411D01*
X157596525Y-108769632D01*
X157803368Y-108976475D01*
X157977760Y-109093000D01*
X157803368Y-109209525D01*
X157596525Y-109416368D01*
X157434010Y-109659589D01*
X157322068Y-109929842D01*
X157265000Y-110216740D01*
X157265000Y-110509260D01*
X157322068Y-110796158D01*
X157434010Y-111066411D01*
X157596525Y-111309632D01*
X157728380Y-111441487D01*
X157655820Y-111463498D01*
X157545506Y-111522463D01*
X157448815Y-111601815D01*
X157369463Y-111698506D01*
X157310498Y-111808820D01*
X157274188Y-111928518D01*
X157261928Y-112053000D01*
X157265000Y-112617250D01*
X157423750Y-112776000D01*
X158623000Y-112776000D01*
X158623000Y-112756000D01*
X158877000Y-112756000D01*
X158877000Y-112776000D01*
X160076250Y-112776000D01*
X160235000Y-112617250D01*
X160238072Y-112053000D01*
X160225812Y-111928518D01*
X160189502Y-111808820D01*
X160130537Y-111698506D01*
X160051185Y-111601815D01*
X159954494Y-111522463D01*
X159844180Y-111463498D01*
X159771620Y-111441487D01*
X159903475Y-111309632D01*
X160065990Y-111066411D01*
X160177932Y-110796158D01*
X160235000Y-110509260D01*
X160235000Y-110216740D01*
X160177932Y-109929842D01*
X160065990Y-109659589D01*
X159903475Y-109416368D01*
X159696632Y-109209525D01*
X159522240Y-109093000D01*
X159696632Y-108976475D01*
X159903475Y-108769632D01*
X160065990Y-108526411D01*
X160177932Y-108256158D01*
X160235000Y-107969260D01*
X160235000Y-107676740D01*
X160177932Y-107389842D01*
X160065990Y-107119589D01*
X159903475Y-106876368D01*
X159696632Y-106669525D01*
X159522240Y-106553000D01*
X159696632Y-106436475D01*
X159903475Y-106229632D01*
X160065990Y-105986411D01*
X160177932Y-105716158D01*
X160235000Y-105429260D01*
X160235000Y-105136740D01*
X160177932Y-104849842D01*
X160065990Y-104579589D01*
X159903475Y-104336368D01*
X159696632Y-104129525D01*
X159522240Y-104013000D01*
X159696632Y-103896475D01*
X159903475Y-103689632D01*
X160065990Y-103446411D01*
X160177932Y-103176158D01*
X160235000Y-102889260D01*
X160235000Y-102596740D01*
X160177932Y-102309842D01*
X160065990Y-102039589D01*
X159903475Y-101796368D01*
X159771620Y-101664513D01*
X159844180Y-101642502D01*
X159954494Y-101583537D01*
X160051185Y-101504185D01*
X160130537Y-101407494D01*
X160189502Y-101297180D01*
X160225812Y-101177482D01*
X160238072Y-101053000D01*
X175041928Y-101053000D01*
X175054188Y-101177482D01*
X175090498Y-101297180D01*
X175149463Y-101407494D01*
X175228815Y-101504185D01*
X175325506Y-101583537D01*
X175435820Y-101642502D01*
X175508380Y-101664513D01*
X175376525Y-101796368D01*
X175214010Y-102039589D01*
X175102068Y-102309842D01*
X175045000Y-102596740D01*
X175045000Y-102889260D01*
X175102068Y-103176158D01*
X175214010Y-103446411D01*
X175376525Y-103689632D01*
X175583368Y-103896475D01*
X175757760Y-104013000D01*
X175583368Y-104129525D01*
X175376525Y-104336368D01*
X175214010Y-104579589D01*
X175102068Y-104849842D01*
X175045000Y-105136740D01*
X175045000Y-105429260D01*
X175102068Y-105716158D01*
X175214010Y-105986411D01*
X175376525Y-106229632D01*
X175583368Y-106436475D01*
X175757760Y-106553000D01*
X175583368Y-106669525D01*
X175376525Y-106876368D01*
X175214010Y-107119589D01*
X175102068Y-107389842D01*
X175045000Y-107676740D01*
X175045000Y-107969260D01*
X175102068Y-108256158D01*
X175214010Y-108526411D01*
X175376525Y-108769632D01*
X175583368Y-108976475D01*
X175757760Y-109093000D01*
X175583368Y-109209525D01*
X175376525Y-109416368D01*
X175214010Y-109659589D01*
X175102068Y-109929842D01*
X175045000Y-110216740D01*
X175045000Y-110509260D01*
X175102068Y-110796158D01*
X175214010Y-111066411D01*
X175376525Y-111309632D01*
X175508380Y-111441487D01*
X175435820Y-111463498D01*
X175325506Y-111522463D01*
X175228815Y-111601815D01*
X175149463Y-111698506D01*
X175090498Y-111808820D01*
X175054188Y-111928518D01*
X175041928Y-112053000D01*
X175045000Y-112617250D01*
X175203750Y-112776000D01*
X176403000Y-112776000D01*
X176403000Y-112756000D01*
X176657000Y-112756000D01*
X176657000Y-112776000D01*
X177856250Y-112776000D01*
X178015000Y-112617250D01*
X178018072Y-112053000D01*
X178005812Y-111928518D01*
X177969502Y-111808820D01*
X177910537Y-111698506D01*
X177831185Y-111601815D01*
X177734494Y-111522463D01*
X177624180Y-111463498D01*
X177551620Y-111441487D01*
X177683475Y-111309632D01*
X177845990Y-111066411D01*
X177957932Y-110796158D01*
X178015000Y-110509260D01*
X178015000Y-110216740D01*
X177957932Y-109929842D01*
X177845990Y-109659589D01*
X177683475Y-109416368D01*
X177476632Y-109209525D01*
X177302240Y-109093000D01*
X177476632Y-108976475D01*
X177683475Y-108769632D01*
X177845990Y-108526411D01*
X177957932Y-108256158D01*
X178015000Y-107969260D01*
X178015000Y-107676740D01*
X177957932Y-107389842D01*
X177845990Y-107119589D01*
X177683475Y-106876368D01*
X177476632Y-106669525D01*
X177302240Y-106553000D01*
X177476632Y-106436475D01*
X177683475Y-106229632D01*
X177845990Y-105986411D01*
X177957932Y-105716158D01*
X178015000Y-105429260D01*
X178015000Y-105136740D01*
X177957932Y-104849842D01*
X177845990Y-104579589D01*
X177683475Y-104336368D01*
X177476632Y-104129525D01*
X177302240Y-104013000D01*
X177476632Y-103896475D01*
X177683475Y-103689632D01*
X177845990Y-103446411D01*
X177957932Y-103176158D01*
X178015000Y-102889260D01*
X178015000Y-102596740D01*
X177957932Y-102309842D01*
X177845990Y-102039589D01*
X177683475Y-101796368D01*
X177551620Y-101664513D01*
X177624180Y-101642502D01*
X177734494Y-101583537D01*
X177831185Y-101504185D01*
X177910537Y-101407494D01*
X177969502Y-101297180D01*
X178005812Y-101177482D01*
X178018072Y-101053000D01*
X178015000Y-100488750D01*
X177856250Y-100330000D01*
X176657000Y-100330000D01*
X176657000Y-100350000D01*
X176403000Y-100350000D01*
X176403000Y-100330000D01*
X175203750Y-100330000D01*
X175045000Y-100488750D01*
X175041928Y-101053000D01*
X160238072Y-101053000D01*
X160235000Y-100488750D01*
X160076250Y-100330000D01*
X158877000Y-100330000D01*
X158877000Y-100350000D01*
X158623000Y-100350000D01*
X158623000Y-100330000D01*
X157423750Y-100330000D01*
X157265000Y-100488750D01*
X157261928Y-101053000D01*
X144170000Y-101053000D01*
X144170000Y-98028000D01*
X146466928Y-98028000D01*
X146479188Y-98152482D01*
X146515498Y-98272180D01*
X146574463Y-98382494D01*
X146653815Y-98479185D01*
X146750506Y-98558537D01*
X146860820Y-98617502D01*
X146980518Y-98653812D01*
X147105000Y-98666072D01*
X147669250Y-98663000D01*
X147828000Y-98504250D01*
X147828000Y-97155000D01*
X146628750Y-97155000D01*
X146470000Y-97313750D01*
X146466928Y-98028000D01*
X144170000Y-98028000D01*
X144170000Y-96028000D01*
X146466928Y-96028000D01*
X146470000Y-96742250D01*
X146628750Y-96901000D01*
X147828000Y-96901000D01*
X147828000Y-95551750D01*
X148082000Y-95551750D01*
X148082000Y-96901000D01*
X148102000Y-96901000D01*
X148102000Y-97155000D01*
X148082000Y-97155000D01*
X148082000Y-98504250D01*
X148240750Y-98663000D01*
X148805000Y-98666072D01*
X148929482Y-98653812D01*
X149049180Y-98617502D01*
X149159494Y-98558537D01*
X149256185Y-98479185D01*
X149335537Y-98382494D01*
X149394502Y-98272180D01*
X149405055Y-98237392D01*
X149625987Y-98418706D01*
X149883967Y-98556599D01*
X150163890Y-98641513D01*
X150455000Y-98670185D01*
X150746111Y-98641513D01*
X151026034Y-98556599D01*
X151284014Y-98418706D01*
X151510134Y-98233134D01*
X151695706Y-98007014D01*
X151833599Y-97749033D01*
X151918513Y-97469110D01*
X151940000Y-97250949D01*
X151940000Y-96805050D01*
X151918513Y-96586889D01*
X151833599Y-96306966D01*
X151695706Y-96048986D01*
X151510134Y-95822866D01*
X151284013Y-95637294D01*
X151026033Y-95499401D01*
X150746110Y-95414487D01*
X150455000Y-95385815D01*
X150163889Y-95414487D01*
X149883966Y-95499401D01*
X149625986Y-95637294D01*
X149405055Y-95818608D01*
X149394502Y-95783820D01*
X149335537Y-95673506D01*
X149256185Y-95576815D01*
X149159494Y-95497463D01*
X149049180Y-95438498D01*
X148929482Y-95402188D01*
X148805000Y-95389928D01*
X148240750Y-95393000D01*
X148082000Y-95551750D01*
X147828000Y-95551750D01*
X147669250Y-95393000D01*
X147105000Y-95389928D01*
X146980518Y-95402188D01*
X146860820Y-95438498D01*
X146750506Y-95497463D01*
X146653815Y-95576815D01*
X146574463Y-95673506D01*
X146515498Y-95783820D01*
X146479188Y-95903518D01*
X146466928Y-96028000D01*
X144170000Y-96028000D01*
X144170000Y-91678000D01*
X146466928Y-91678000D01*
X146479188Y-91802482D01*
X146515498Y-91922180D01*
X146574463Y-92032494D01*
X146653815Y-92129185D01*
X146750506Y-92208537D01*
X146860820Y-92267502D01*
X146980518Y-92303812D01*
X147105000Y-92316072D01*
X147669250Y-92313000D01*
X147828000Y-92154250D01*
X147828000Y-90805000D01*
X146628750Y-90805000D01*
X146470000Y-90963750D01*
X146466928Y-91678000D01*
X144170000Y-91678000D01*
X144170000Y-89678000D01*
X146466928Y-89678000D01*
X146470000Y-90392250D01*
X146628750Y-90551000D01*
X147828000Y-90551000D01*
X147828000Y-89201750D01*
X148082000Y-89201750D01*
X148082000Y-90551000D01*
X148102000Y-90551000D01*
X148102000Y-90805000D01*
X148082000Y-90805000D01*
X148082000Y-92154250D01*
X148240750Y-92313000D01*
X148805000Y-92316072D01*
X148929482Y-92303812D01*
X149049180Y-92267502D01*
X149159494Y-92208537D01*
X149256185Y-92129185D01*
X149335537Y-92032494D01*
X149394502Y-91922180D01*
X149405055Y-91887392D01*
X149625987Y-92068706D01*
X149883967Y-92206599D01*
X150163890Y-92291513D01*
X150455000Y-92320185D01*
X150746111Y-92291513D01*
X151026034Y-92206599D01*
X151284014Y-92068706D01*
X151510134Y-91883134D01*
X151695706Y-91657014D01*
X151833599Y-91399033D01*
X151918513Y-91119110D01*
X151940000Y-90900949D01*
X151940000Y-90455050D01*
X151918513Y-90236889D01*
X151833599Y-89956966D01*
X151695706Y-89698986D01*
X151510134Y-89472866D01*
X151284013Y-89287294D01*
X151026033Y-89149401D01*
X150746110Y-89064487D01*
X150455000Y-89035815D01*
X150163889Y-89064487D01*
X149883966Y-89149401D01*
X149625986Y-89287294D01*
X149405055Y-89468608D01*
X149394502Y-89433820D01*
X149335537Y-89323506D01*
X149256185Y-89226815D01*
X149159494Y-89147463D01*
X149049180Y-89088498D01*
X148929482Y-89052188D01*
X148805000Y-89039928D01*
X148240750Y-89043000D01*
X148082000Y-89201750D01*
X147828000Y-89201750D01*
X147669250Y-89043000D01*
X147105000Y-89039928D01*
X146980518Y-89052188D01*
X146860820Y-89088498D01*
X146750506Y-89147463D01*
X146653815Y-89226815D01*
X146574463Y-89323506D01*
X146515498Y-89433820D01*
X146479188Y-89553518D01*
X146466928Y-89678000D01*
X144170000Y-89678000D01*
X144170000Y-88353000D01*
X157261928Y-88353000D01*
X157274188Y-88477482D01*
X157310498Y-88597180D01*
X157369463Y-88707494D01*
X157448815Y-88804185D01*
X157545506Y-88883537D01*
X157655820Y-88942502D01*
X157728380Y-88964513D01*
X157596525Y-89096368D01*
X157434010Y-89339589D01*
X157322068Y-89609842D01*
X157265000Y-89896740D01*
X157265000Y-90189260D01*
X157322068Y-90476158D01*
X157434010Y-90746411D01*
X157596525Y-90989632D01*
X157803368Y-91196475D01*
X157977760Y-91313000D01*
X157803368Y-91429525D01*
X157596525Y-91636368D01*
X157434010Y-91879589D01*
X157322068Y-92149842D01*
X157265000Y-92436740D01*
X157265000Y-92729260D01*
X157322068Y-93016158D01*
X157434010Y-93286411D01*
X157596525Y-93529632D01*
X157803368Y-93736475D01*
X157977760Y-93853000D01*
X157803368Y-93969525D01*
X157596525Y-94176368D01*
X157434010Y-94419589D01*
X157322068Y-94689842D01*
X157265000Y-94976740D01*
X157265000Y-95269260D01*
X157322068Y-95556158D01*
X157434010Y-95826411D01*
X157596525Y-96069632D01*
X157803368Y-96276475D01*
X157977760Y-96393000D01*
X157803368Y-96509525D01*
X157596525Y-96716368D01*
X157434010Y-96959589D01*
X157322068Y-97229842D01*
X157265000Y-97516740D01*
X157265000Y-97809260D01*
X157322068Y-98096158D01*
X157434010Y-98366411D01*
X157596525Y-98609632D01*
X157728380Y-98741487D01*
X157655820Y-98763498D01*
X157545506Y-98822463D01*
X157448815Y-98901815D01*
X157369463Y-98998506D01*
X157310498Y-99108820D01*
X157274188Y-99228518D01*
X157261928Y-99353000D01*
X157265000Y-99917250D01*
X157423750Y-100076000D01*
X158623000Y-100076000D01*
X158623000Y-100056000D01*
X158877000Y-100056000D01*
X158877000Y-100076000D01*
X160076250Y-100076000D01*
X160235000Y-99917250D01*
X160238072Y-99353000D01*
X160225812Y-99228518D01*
X160189502Y-99108820D01*
X160130537Y-98998506D01*
X160051185Y-98901815D01*
X159954494Y-98822463D01*
X159844180Y-98763498D01*
X159771620Y-98741487D01*
X159903475Y-98609632D01*
X160065990Y-98366411D01*
X160177932Y-98096158D01*
X160235000Y-97809260D01*
X160235000Y-97516740D01*
X160177932Y-97229842D01*
X160065990Y-96959589D01*
X159903475Y-96716368D01*
X159696632Y-96509525D01*
X159522240Y-96393000D01*
X159696632Y-96276475D01*
X159903475Y-96069632D01*
X160065990Y-95826411D01*
X160177932Y-95556158D01*
X160235000Y-95269260D01*
X160235000Y-94976740D01*
X160177932Y-94689842D01*
X160065990Y-94419589D01*
X159903475Y-94176368D01*
X159696632Y-93969525D01*
X159522240Y-93853000D01*
X159696632Y-93736475D01*
X159903475Y-93529632D01*
X160065990Y-93286411D01*
X160177932Y-93016158D01*
X160235000Y-92729260D01*
X160235000Y-92436740D01*
X160177932Y-92149842D01*
X160065990Y-91879589D01*
X159903475Y-91636368D01*
X159696632Y-91429525D01*
X159522240Y-91313000D01*
X159696632Y-91196475D01*
X159903475Y-90989632D01*
X160065990Y-90746411D01*
X160177932Y-90476158D01*
X160235000Y-90189260D01*
X160235000Y-89896740D01*
X160177932Y-89609842D01*
X160065990Y-89339589D01*
X159903475Y-89096368D01*
X159771620Y-88964513D01*
X159844180Y-88942502D01*
X159954494Y-88883537D01*
X160051185Y-88804185D01*
X160130537Y-88707494D01*
X160189502Y-88597180D01*
X160225812Y-88477482D01*
X160238072Y-88353000D01*
X160235000Y-87788750D01*
X160076250Y-87630000D01*
X158877000Y-87630000D01*
X158877000Y-87650000D01*
X158623000Y-87650000D01*
X158623000Y-87630000D01*
X157423750Y-87630000D01*
X157265000Y-87788750D01*
X157261928Y-88353000D01*
X144170000Y-88353000D01*
X144170000Y-85328000D01*
X146466928Y-85328000D01*
X146479188Y-85452482D01*
X146515498Y-85572180D01*
X146574463Y-85682494D01*
X146653815Y-85779185D01*
X146750506Y-85858537D01*
X146860820Y-85917502D01*
X146980518Y-85953812D01*
X147105000Y-85966072D01*
X147669250Y-85963000D01*
X147828000Y-85804250D01*
X147828000Y-84455000D01*
X146628750Y-84455000D01*
X146470000Y-84613750D01*
X146466928Y-85328000D01*
X144170000Y-85328000D01*
X144170000Y-83328000D01*
X146466928Y-83328000D01*
X146470000Y-84042250D01*
X146628750Y-84201000D01*
X147828000Y-84201000D01*
X147828000Y-82851750D01*
X148082000Y-82851750D01*
X148082000Y-84201000D01*
X148102000Y-84201000D01*
X148102000Y-84455000D01*
X148082000Y-84455000D01*
X148082000Y-85804250D01*
X148240750Y-85963000D01*
X148805000Y-85966072D01*
X148929482Y-85953812D01*
X149049180Y-85917502D01*
X149159494Y-85858537D01*
X149256185Y-85779185D01*
X149335537Y-85682494D01*
X149394502Y-85572180D01*
X149405055Y-85537392D01*
X149625987Y-85718706D01*
X149883967Y-85856599D01*
X150163890Y-85941513D01*
X150455000Y-85970185D01*
X150746111Y-85941513D01*
X151026034Y-85856599D01*
X151284014Y-85718706D01*
X151510134Y-85533134D01*
X151695706Y-85307014D01*
X151833599Y-85049033D01*
X151918513Y-84769110D01*
X151940000Y-84550949D01*
X151940000Y-84105050D01*
X151918513Y-83886889D01*
X151833599Y-83606966D01*
X151695706Y-83348986D01*
X151510134Y-83122866D01*
X151284013Y-82937294D01*
X151026033Y-82799401D01*
X150746110Y-82714487D01*
X150455000Y-82685815D01*
X150163889Y-82714487D01*
X149883966Y-82799401D01*
X149625986Y-82937294D01*
X149405055Y-83118608D01*
X149394502Y-83083820D01*
X149335537Y-82973506D01*
X149256185Y-82876815D01*
X149159494Y-82797463D01*
X149049180Y-82738498D01*
X148929482Y-82702188D01*
X148805000Y-82689928D01*
X148240750Y-82693000D01*
X148082000Y-82851750D01*
X147828000Y-82851750D01*
X147669250Y-82693000D01*
X147105000Y-82689928D01*
X146980518Y-82702188D01*
X146860820Y-82738498D01*
X146750506Y-82797463D01*
X146653815Y-82876815D01*
X146574463Y-82973506D01*
X146515498Y-83083820D01*
X146479188Y-83203518D01*
X146466928Y-83328000D01*
X144170000Y-83328000D01*
X144170000Y-78978000D01*
X146466928Y-78978000D01*
X146479188Y-79102482D01*
X146515498Y-79222180D01*
X146574463Y-79332494D01*
X146653815Y-79429185D01*
X146750506Y-79508537D01*
X146860820Y-79567502D01*
X146980518Y-79603812D01*
X147105000Y-79616072D01*
X147669250Y-79613000D01*
X147828000Y-79454250D01*
X147828000Y-78105000D01*
X146628750Y-78105000D01*
X146470000Y-78263750D01*
X146466928Y-78978000D01*
X144170000Y-78978000D01*
X144170000Y-76978000D01*
X146466928Y-76978000D01*
X146470000Y-77692250D01*
X146628750Y-77851000D01*
X147828000Y-77851000D01*
X147828000Y-76501750D01*
X148082000Y-76501750D01*
X148082000Y-77851000D01*
X148102000Y-77851000D01*
X148102000Y-78105000D01*
X148082000Y-78105000D01*
X148082000Y-79454250D01*
X148240750Y-79613000D01*
X148805000Y-79616072D01*
X148929482Y-79603812D01*
X149049180Y-79567502D01*
X149159494Y-79508537D01*
X149256185Y-79429185D01*
X149335537Y-79332494D01*
X149394502Y-79222180D01*
X149405055Y-79187392D01*
X149625987Y-79368706D01*
X149883967Y-79506599D01*
X150163890Y-79591513D01*
X150455000Y-79620185D01*
X150746111Y-79591513D01*
X151026034Y-79506599D01*
X151284014Y-79368706D01*
X151510134Y-79183134D01*
X151695706Y-78957014D01*
X151833599Y-78699033D01*
X151918513Y-78419110D01*
X151940000Y-78200949D01*
X151940000Y-77755050D01*
X151918513Y-77536889D01*
X151833599Y-77256966D01*
X151695706Y-76998986D01*
X151510134Y-76772866D01*
X151284013Y-76587294D01*
X151026033Y-76449401D01*
X150746110Y-76364487D01*
X150455000Y-76335815D01*
X150163889Y-76364487D01*
X149883966Y-76449401D01*
X149625986Y-76587294D01*
X149405055Y-76768608D01*
X149394502Y-76733820D01*
X149335537Y-76623506D01*
X149256185Y-76526815D01*
X149159494Y-76447463D01*
X149049180Y-76388498D01*
X148929482Y-76352188D01*
X148805000Y-76339928D01*
X148240750Y-76343000D01*
X148082000Y-76501750D01*
X147828000Y-76501750D01*
X147669250Y-76343000D01*
X147105000Y-76339928D01*
X146980518Y-76352188D01*
X146860820Y-76388498D01*
X146750506Y-76447463D01*
X146653815Y-76526815D01*
X146574463Y-76623506D01*
X146515498Y-76733820D01*
X146479188Y-76853518D01*
X146466928Y-76978000D01*
X144170000Y-76978000D01*
X144170000Y-75653000D01*
X157261928Y-75653000D01*
X157274188Y-75777482D01*
X157310498Y-75897180D01*
X157369463Y-76007494D01*
X157448815Y-76104185D01*
X157545506Y-76183537D01*
X157655820Y-76242502D01*
X157728380Y-76264513D01*
X157596525Y-76396368D01*
X157434010Y-76639589D01*
X157322068Y-76909842D01*
X157265000Y-77196740D01*
X157265000Y-77489260D01*
X157322068Y-77776158D01*
X157434010Y-78046411D01*
X157596525Y-78289632D01*
X157803368Y-78496475D01*
X157977760Y-78613000D01*
X157803368Y-78729525D01*
X157596525Y-78936368D01*
X157434010Y-79179589D01*
X157322068Y-79449842D01*
X157265000Y-79736740D01*
X157265000Y-80029260D01*
X157322068Y-80316158D01*
X157434010Y-80586411D01*
X157596525Y-80829632D01*
X157803368Y-81036475D01*
X157977760Y-81153000D01*
X157803368Y-81269525D01*
X157596525Y-81476368D01*
X157434010Y-81719589D01*
X157322068Y-81989842D01*
X157265000Y-82276740D01*
X157265000Y-82569260D01*
X157322068Y-82856158D01*
X157434010Y-83126411D01*
X157596525Y-83369632D01*
X157803368Y-83576475D01*
X157977760Y-83693000D01*
X157803368Y-83809525D01*
X157596525Y-84016368D01*
X157434010Y-84259589D01*
X157322068Y-84529842D01*
X157265000Y-84816740D01*
X157265000Y-85109260D01*
X157322068Y-85396158D01*
X157434010Y-85666411D01*
X157596525Y-85909632D01*
X157728380Y-86041487D01*
X157655820Y-86063498D01*
X157545506Y-86122463D01*
X157448815Y-86201815D01*
X157369463Y-86298506D01*
X157310498Y-86408820D01*
X157274188Y-86528518D01*
X157261928Y-86653000D01*
X157265000Y-87217250D01*
X157423750Y-87376000D01*
X158623000Y-87376000D01*
X158623000Y-87356000D01*
X158877000Y-87356000D01*
X158877000Y-87376000D01*
X160076250Y-87376000D01*
X160235000Y-87217250D01*
X160238072Y-86653000D01*
X160225812Y-86528518D01*
X160189502Y-86408820D01*
X160130537Y-86298506D01*
X160051185Y-86201815D01*
X159954494Y-86122463D01*
X159844180Y-86063498D01*
X159771620Y-86041487D01*
X159903475Y-85909632D01*
X160065990Y-85666411D01*
X160177932Y-85396158D01*
X160235000Y-85109260D01*
X160235000Y-84816740D01*
X160177932Y-84529842D01*
X160065990Y-84259589D01*
X159903475Y-84016368D01*
X159696632Y-83809525D01*
X159522240Y-83693000D01*
X159696632Y-83576475D01*
X159903475Y-83369632D01*
X160065990Y-83126411D01*
X160177932Y-82856158D01*
X160235000Y-82569260D01*
X160235000Y-82276740D01*
X160177932Y-81989842D01*
X160065990Y-81719589D01*
X159903475Y-81476368D01*
X159696632Y-81269525D01*
X159522240Y-81153000D01*
X159696632Y-81036475D01*
X159903475Y-80829632D01*
X160065990Y-80586411D01*
X160177932Y-80316158D01*
X160235000Y-80029260D01*
X160235000Y-79736740D01*
X160177932Y-79449842D01*
X160065990Y-79179589D01*
X159903475Y-78936368D01*
X159696632Y-78729525D01*
X159522240Y-78613000D01*
X159696632Y-78496475D01*
X159903475Y-78289632D01*
X160065990Y-78046411D01*
X160177932Y-77776158D01*
X160235000Y-77489260D01*
X160235000Y-77196740D01*
X160177932Y-76909842D01*
X160065990Y-76639589D01*
X159903475Y-76396368D01*
X159771620Y-76264513D01*
X159844180Y-76242502D01*
X159954494Y-76183537D01*
X160051185Y-76104185D01*
X160130537Y-76007494D01*
X160189502Y-75897180D01*
X160225812Y-75777482D01*
X160238072Y-75653000D01*
X175041928Y-75653000D01*
X175054188Y-75777482D01*
X175090498Y-75897180D01*
X175149463Y-76007494D01*
X175228815Y-76104185D01*
X175325506Y-76183537D01*
X175435820Y-76242502D01*
X175508380Y-76264513D01*
X175376525Y-76396368D01*
X175214010Y-76639589D01*
X175102068Y-76909842D01*
X175045000Y-77196740D01*
X175045000Y-77489260D01*
X175102068Y-77776158D01*
X175214010Y-78046411D01*
X175376525Y-78289632D01*
X175583368Y-78496475D01*
X175757760Y-78613000D01*
X175583368Y-78729525D01*
X175376525Y-78936368D01*
X175214010Y-79179589D01*
X175102068Y-79449842D01*
X175045000Y-79736740D01*
X175045000Y-80029260D01*
X175102068Y-80316158D01*
X175214010Y-80586411D01*
X175376525Y-80829632D01*
X175583368Y-81036475D01*
X175757760Y-81153000D01*
X175583368Y-81269525D01*
X175376525Y-81476368D01*
X175214010Y-81719589D01*
X175102068Y-81989842D01*
X175045000Y-82276740D01*
X175045000Y-82569260D01*
X175102068Y-82856158D01*
X175214010Y-83126411D01*
X175376525Y-83369632D01*
X175583368Y-83576475D01*
X175757760Y-83693000D01*
X175583368Y-83809525D01*
X175376525Y-84016368D01*
X175214010Y-84259589D01*
X175102068Y-84529842D01*
X175045000Y-84816740D01*
X175045000Y-85109260D01*
X175102068Y-85396158D01*
X175214010Y-85666411D01*
X175376525Y-85909632D01*
X175508380Y-86041487D01*
X175435820Y-86063498D01*
X175325506Y-86122463D01*
X175228815Y-86201815D01*
X175149463Y-86298506D01*
X175090498Y-86408820D01*
X175054188Y-86528518D01*
X175041928Y-86653000D01*
X175041928Y-88353000D01*
X175054188Y-88477482D01*
X175090498Y-88597180D01*
X175149463Y-88707494D01*
X175228815Y-88804185D01*
X175325506Y-88883537D01*
X175435820Y-88942502D01*
X175508380Y-88964513D01*
X175376525Y-89096368D01*
X175214010Y-89339589D01*
X175102068Y-89609842D01*
X175045000Y-89896740D01*
X175045000Y-90189260D01*
X175102068Y-90476158D01*
X175214010Y-90746411D01*
X175376525Y-90989632D01*
X175583368Y-91196475D01*
X175757760Y-91313000D01*
X175583368Y-91429525D01*
X175376525Y-91636368D01*
X175214010Y-91879589D01*
X175102068Y-92149842D01*
X175045000Y-92436740D01*
X175045000Y-92729260D01*
X175102068Y-93016158D01*
X175214010Y-93286411D01*
X175376525Y-93529632D01*
X175583368Y-93736475D01*
X175757760Y-93853000D01*
X175583368Y-93969525D01*
X175376525Y-94176368D01*
X175214010Y-94419589D01*
X175102068Y-94689842D01*
X175045000Y-94976740D01*
X175045000Y-95269260D01*
X175102068Y-95556158D01*
X175214010Y-95826411D01*
X175376525Y-96069632D01*
X175583368Y-96276475D01*
X175757760Y-96393000D01*
X175583368Y-96509525D01*
X175376525Y-96716368D01*
X175214010Y-96959589D01*
X175102068Y-97229842D01*
X175045000Y-97516740D01*
X175045000Y-97809260D01*
X175102068Y-98096158D01*
X175214010Y-98366411D01*
X175376525Y-98609632D01*
X175508380Y-98741487D01*
X175435820Y-98763498D01*
X175325506Y-98822463D01*
X175228815Y-98901815D01*
X175149463Y-98998506D01*
X175090498Y-99108820D01*
X175054188Y-99228518D01*
X175041928Y-99353000D01*
X175045000Y-99917250D01*
X175203750Y-100076000D01*
X176403000Y-100076000D01*
X176403000Y-100056000D01*
X176657000Y-100056000D01*
X176657000Y-100076000D01*
X177856250Y-100076000D01*
X178015000Y-99917250D01*
X178018072Y-99353000D01*
X178005812Y-99228518D01*
X177969502Y-99108820D01*
X177910537Y-98998506D01*
X177831185Y-98901815D01*
X177734494Y-98822463D01*
X177624180Y-98763498D01*
X177551620Y-98741487D01*
X177683475Y-98609632D01*
X177845990Y-98366411D01*
X177957932Y-98096158D01*
X178015000Y-97809260D01*
X178015000Y-97516740D01*
X177957932Y-97229842D01*
X177845990Y-96959589D01*
X177683475Y-96716368D01*
X177476632Y-96509525D01*
X177302240Y-96393000D01*
X177476632Y-96276475D01*
X177683475Y-96069632D01*
X177845990Y-95826411D01*
X177957932Y-95556158D01*
X178015000Y-95269260D01*
X178015000Y-94976740D01*
X177957932Y-94689842D01*
X177845990Y-94419589D01*
X177683475Y-94176368D01*
X177476632Y-93969525D01*
X177302240Y-93853000D01*
X177476632Y-93736475D01*
X177683475Y-93529632D01*
X177845990Y-93286411D01*
X177957932Y-93016158D01*
X178015000Y-92729260D01*
X178015000Y-92436740D01*
X177957932Y-92149842D01*
X177845990Y-91879589D01*
X177683475Y-91636368D01*
X177476632Y-91429525D01*
X177302240Y-91313000D01*
X177476632Y-91196475D01*
X177683475Y-90989632D01*
X177845990Y-90746411D01*
X177957932Y-90476158D01*
X178015000Y-90189260D01*
X178015000Y-89896740D01*
X177957932Y-89609842D01*
X177845990Y-89339589D01*
X177683475Y-89096368D01*
X177551620Y-88964513D01*
X177624180Y-88942502D01*
X177734494Y-88883537D01*
X177831185Y-88804185D01*
X177910537Y-88707494D01*
X177969502Y-88597180D01*
X178005812Y-88477482D01*
X178018072Y-88353000D01*
X178018072Y-86653000D01*
X178005812Y-86528518D01*
X177969502Y-86408820D01*
X177910537Y-86298506D01*
X177831185Y-86201815D01*
X177734494Y-86122463D01*
X177624180Y-86063498D01*
X177551620Y-86041487D01*
X177683475Y-85909632D01*
X177845990Y-85666411D01*
X177957932Y-85396158D01*
X178015000Y-85109260D01*
X178015000Y-84816740D01*
X177957932Y-84529842D01*
X177845990Y-84259589D01*
X177683475Y-84016368D01*
X177476632Y-83809525D01*
X177302240Y-83693000D01*
X177476632Y-83576475D01*
X177683475Y-83369632D01*
X177845990Y-83126411D01*
X177957932Y-82856158D01*
X178015000Y-82569260D01*
X178015000Y-82276740D01*
X177957932Y-81989842D01*
X177845990Y-81719589D01*
X177683475Y-81476368D01*
X177476632Y-81269525D01*
X177302240Y-81153000D01*
X177476632Y-81036475D01*
X177683475Y-80829632D01*
X177845990Y-80586411D01*
X177957932Y-80316158D01*
X178015000Y-80029260D01*
X178015000Y-79736740D01*
X177957932Y-79449842D01*
X177845990Y-79179589D01*
X177683475Y-78936368D01*
X177476632Y-78729525D01*
X177302240Y-78613000D01*
X177476632Y-78496475D01*
X177683475Y-78289632D01*
X177845990Y-78046411D01*
X177957932Y-77776158D01*
X178015000Y-77489260D01*
X178015000Y-77196740D01*
X177957932Y-76909842D01*
X177845990Y-76639589D01*
X177683475Y-76396368D01*
X177551620Y-76264513D01*
X177624180Y-76242502D01*
X177734494Y-76183537D01*
X177831185Y-76104185D01*
X177910537Y-76007494D01*
X177969502Y-75897180D01*
X178005812Y-75777482D01*
X178018072Y-75653000D01*
X178015000Y-75088750D01*
X177856250Y-74930000D01*
X176657000Y-74930000D01*
X176657000Y-74950000D01*
X176403000Y-74950000D01*
X176403000Y-74930000D01*
X175203750Y-74930000D01*
X175045000Y-75088750D01*
X175041928Y-75653000D01*
X160238072Y-75653000D01*
X160235000Y-75088750D01*
X160076250Y-74930000D01*
X158877000Y-74930000D01*
X158877000Y-74950000D01*
X158623000Y-74950000D01*
X158623000Y-74930000D01*
X157423750Y-74930000D01*
X157265000Y-75088750D01*
X157261928Y-75653000D01*
X144170000Y-75653000D01*
X144170000Y-72628000D01*
X146466928Y-72628000D01*
X146479188Y-72752482D01*
X146515498Y-72872180D01*
X146574463Y-72982494D01*
X146653815Y-73079185D01*
X146750506Y-73158537D01*
X146860820Y-73217502D01*
X146980518Y-73253812D01*
X147105000Y-73266072D01*
X147669250Y-73263000D01*
X147828000Y-73104250D01*
X147828000Y-71755000D01*
X146628750Y-71755000D01*
X146470000Y-71913750D01*
X146466928Y-72628000D01*
X144170000Y-72628000D01*
X144170000Y-70628000D01*
X146466928Y-70628000D01*
X146470000Y-71342250D01*
X146628750Y-71501000D01*
X147828000Y-71501000D01*
X147828000Y-70151750D01*
X148082000Y-70151750D01*
X148082000Y-71501000D01*
X148102000Y-71501000D01*
X148102000Y-71755000D01*
X148082000Y-71755000D01*
X148082000Y-73104250D01*
X148240750Y-73263000D01*
X148805000Y-73266072D01*
X148929482Y-73253812D01*
X149049180Y-73217502D01*
X149159494Y-73158537D01*
X149256185Y-73079185D01*
X149335537Y-72982494D01*
X149394502Y-72872180D01*
X149405055Y-72837392D01*
X149625987Y-73018706D01*
X149883967Y-73156599D01*
X150163890Y-73241513D01*
X150455000Y-73270185D01*
X150746111Y-73241513D01*
X151026034Y-73156599D01*
X151284014Y-73018706D01*
X151510134Y-72833134D01*
X151695706Y-72607014D01*
X151833599Y-72349033D01*
X151918513Y-72069110D01*
X151940000Y-71850949D01*
X151940000Y-71405050D01*
X151918513Y-71186889D01*
X151833599Y-70906966D01*
X151695706Y-70648986D01*
X151510134Y-70422866D01*
X151284013Y-70237294D01*
X151026033Y-70099401D01*
X150746110Y-70014487D01*
X150455000Y-69985815D01*
X150163889Y-70014487D01*
X149883966Y-70099401D01*
X149625986Y-70237294D01*
X149405055Y-70418608D01*
X149394502Y-70383820D01*
X149335537Y-70273506D01*
X149256185Y-70176815D01*
X149159494Y-70097463D01*
X149049180Y-70038498D01*
X148929482Y-70002188D01*
X148805000Y-69989928D01*
X148240750Y-69993000D01*
X148082000Y-70151750D01*
X147828000Y-70151750D01*
X147669250Y-69993000D01*
X147105000Y-69989928D01*
X146980518Y-70002188D01*
X146860820Y-70038498D01*
X146750506Y-70097463D01*
X146653815Y-70176815D01*
X146574463Y-70273506D01*
X146515498Y-70383820D01*
X146479188Y-70503518D01*
X146466928Y-70628000D01*
X144170000Y-70628000D01*
X144170000Y-70400326D01*
X144295743Y-70361402D01*
X144350875Y-70338227D01*
X144406349Y-70315814D01*
X144414486Y-70311487D01*
X144676122Y-70170021D01*
X144725689Y-70136588D01*
X144775768Y-70103817D01*
X144782909Y-70097993D01*
X145012084Y-69908403D01*
X145054206Y-69865985D01*
X145096976Y-69824103D01*
X145102850Y-69817002D01*
X145290836Y-69586508D01*
X145323951Y-69536666D01*
X145357735Y-69487326D01*
X145362118Y-69479219D01*
X145501754Y-69216601D01*
X145524548Y-69161299D01*
X145548114Y-69106316D01*
X145550839Y-69097513D01*
X145584507Y-68986000D01*
X157456453Y-68986000D01*
X157434010Y-69019589D01*
G37*
%TD.AperFunction*%
%TD*%
M02*
